<svg width="51" height="51" viewBox="0 0 51 51" fill="none" xmlns="http://www.w3.org/2000/svg">
<path d="M44.6132 0H6.2997C2.80845 0 0 2.80845 0 6.28682V44.6003C0 48.0916 2.80845 50.9 6.2997 50.9H44.6132C48.0916 50.9 50.9 48.0916 50.9 44.6003V6.28682C50.9 2.80845 48.0916 0 44.6132 0ZM24.9025 46.6745C24.8767 46.6745 16.8765 44.0335 11.7491 40.2588C3.86484 34.4615 6.84078 26.7963 10.0872 19.2469C10.8835 17.4055 10.4032 15.6948 9.53754 14.305C9.10106 13.6042 9.05752 12.6977 9.56195 12.0442L9.99277 11.486C10.3944 10.9656 11.1654 10.9009 11.6203 11.3755C13.9263 14.3257 14.5061 17.5851 13.2049 20.5996C11.6074 24.3099 10.2547 27.6336 10.1388 30.5709C10.113 31.1893 10.1388 31.7819 10.229 32.323C10.2532 32.5171 10.3003 32.7112 10.338 32.8945C10.341 32.909 10.359 32.9144 10.3695 32.9039C10.3703 32.9031 10.371 32.9022 10.3717 32.9013C11.0153 31.9615 11.4786 31.2408 11.543 31.1249C13.071 28.7153 15.1353 27.3567 15.4853 27.1371C15.52 27.1153 15.5537 27.0956 15.5892 27.0749C16.4173 26.5935 18.3065 25.5014 20.6769 25.7914C21.9394 25.9589 22.867 26.4613 23.5884 26.8607C26.5128 28.471 27.0024 30.4808 28.3551 30.3133C29.0576 30.2245 29.5776 29.6052 29.898 29.0717C30.1999 28.569 30.417 28.0021 30.4278 27.4158C30.4426 26.6128 30.1932 25.2496 29.025 23.0216C28.5226 22.0812 26.4484 18.2936 21.218 14.0036C21.1149 13.9263 21.0248 13.849 20.9603 13.7975C18.9774 12.2137 16.145 10.1537 12.3217 8.13208C12.318 8.13011 12.3138 8.12906 12.3095 8.12906C12.3053 8.12906 12.3011 8.12802 12.2974 8.12604C11.8995 7.91509 11.4932 7.70414 11.0757 7.49186C10.2378 7.06577 9.60385 6.67506 10.1311 5.8968C10.6066 5.19481 11.8615 4.41295 12.6694 4.67032C15.2091 5.47935 17.4047 5.91854 19.1052 6.17087C21.2695 6.49295 22.9958 6.58312 23.9105 6.60889C24.9669 6.66042 26.7061 6.72484 28.9735 6.55736C29.7722 6.49295 31.1507 6.40277 32.8512 6.10646C34.2125 5.86184 35.9778 5.44162 38.0237 4.70807C38.8064 4.42744 39.6881 4.69441 40.1463 5.38824C40.4055 5.78077 40.6657 6.17472 40.9304 6.56892C41.0224 6.70599 40.9783 6.87679 40.8514 6.98249C40.4649 7.25303 39.5245 7.76834 37.7982 8.28365C36.0719 8.79897 33.5726 9.31428 30.017 9.57193C28.6127 9.675 27.0539 9.73941 25.3147 9.73941C24.7093 9.73941 24.2132 9.73317 23.7747 9.72285C23.1103 9.70722 22.8086 10.5522 23.3308 10.9633C24.9411 12.2516 28.3808 15.0085 31.0734 19.1181C32.1813 20.78 36.8577 28.2005 34.191 32.5549C33.9978 32.9027 32.7095 34.9897 30.4292 35.4149C29.3084 35.6081 28.3422 35.3376 27.9686 35.2345C26.822 34.8867 26.4227 34.3843 24.3614 32.8383C22.7253 31.6144 21.9008 31.009 21.3082 30.9059C19.3629 30.5709 17.5979 31.8721 17.1986 32.1684C15.6269 33.3279 13.2436 36.278 13.0889 36.4326C13.0889 36.4326 13.0889 36.4326 13.0889 36.4326C13.062 36.4596 13.0235 36.4725 12.9963 36.4992C12.9586 36.5363 12.916 36.5767 12.8555 36.629C12.848 36.6354 12.8407 36.6459 12.8356 36.6543C12.8061 36.7023 12.7925 36.7757 12.8346 36.8131C13.1048 37.0533 13.3957 37.2853 13.7073 37.5277C16.6932 39.7109 20.8614 41.5296 23.4721 42.5554C24.2981 42.88 24.851 43.6698 24.851 44.5573V46.6229C24.851 46.6514 24.874 46.6745 24.9025 46.6745Z" fill="#32012F"/>
<path d="M9.6106 6.73767C9.61891 6.73767 9.62185 6.74303 9.6229 6.74684C9.62345 6.74885 9.62517 6.75056 9.62725 6.75056C9.63061 6.75056 9.63219 6.74658 9.62948 6.7446C9.62319 6.73998 9.61689 6.73767 9.6106 6.73767Z" fill="#E2DFD0"/>
<path d="M41.0909 6.81499C41.1046 6.81499 41.1101 6.8324 41.0987 6.84005C41.0236 6.89043 40.9569 6.92684 40.8901 6.98246C40.5036 7.253 39.5632 7.76831 37.8369 8.28362C36.1106 8.79894 33.6113 9.31425 30.0557 9.57191C28.6514 9.67497 27.0926 9.73938 25.3534 9.73938C24.748 9.73938 24.2519 9.73314 23.8134 9.72282C23.149 9.70719 22.8473 10.5522 23.3695 10.9633C24.9798 12.2515 28.4196 15.0085 31.1121 19.1181C32.22 20.78 36.8965 28.2005 34.2297 32.5549C34.0365 32.9027 32.7482 34.9897 30.4679 35.4149C29.3471 35.6081 28.3809 35.3376 28.0073 35.2345C26.8607 34.8867 26.4614 34.3842 24.4001 32.8383C22.764 31.6144 21.9395 31.0089 21.3469 30.9059C19.4016 30.5709 17.6366 31.8721 17.2373 32.1684C15.6656 33.3278 13.2824 36.2778 13.1277 36.4326C13.1276 36.4326 13.1277 36.4326 13.1276 36.4326C13.1007 36.4595 13.0622 36.4725 13.0351 36.4992C12.9973 36.5363 12.9547 36.5767 12.8942 36.629C12.8868 36.6354 12.8794 36.6459 12.8743 36.6543C12.8448 36.7023 12.8312 36.7756 12.8733 36.8131C13.1435 37.0533 13.4344 37.2853 13.746 37.5276C16.7319 39.7108 20.9001 41.5295 23.5108 42.5554C24.3368 42.8799 24.8897 43.6698 24.8897 44.5573C24.8897 45.7265 23.991 46.3763 22.898 45.961C20.1897 44.9322 15.2777 42.8659 11.7363 40.2588C3.85201 34.4615 6.82794 26.7962 10.0744 19.2469C10.8707 17.4055 10.3904 15.6948 9.52471 14.305C9.08823 13.6042 9.04469 12.6977 9.54912 12.0442L9.97994 11.486C10.3816 10.9656 11.1526 10.9009 11.6075 11.3755C13.9135 14.3257 14.4932 17.585 13.1921 20.5996C11.5946 24.3099 10.2419 27.6336 10.1259 30.5709C10.1002 31.1893 10.1259 31.7819 10.2161 32.323C10.2404 32.5171 10.2875 32.7111 10.3252 32.8944C10.3282 32.909 10.3461 32.9144 10.3566 32.9039C10.3574 32.9031 10.3582 32.9022 10.3588 32.9013C11.0024 31.9615 11.4658 31.2408 11.5302 31.1249C13.0582 28.7153 15.1224 27.3567 15.4724 27.1371C15.5072 27.1153 15.5409 27.0955 15.5764 27.0749C16.4045 26.5935 18.2937 25.5014 20.6641 25.7914C21.9266 25.9589 22.8542 26.4613 23.5756 26.8607C26.5 28.471 26.9896 30.4807 28.3423 30.3133C29.0448 30.2245 29.5648 29.6051 29.8852 29.0716C30.1871 28.569 30.4042 28.0021 30.415 27.4158C30.4298 26.6128 30.1804 25.2496 29.0122 23.0216C28.5097 22.0811 26.4356 18.2936 21.2052 14.0036C21.1021 13.9263 21.0119 13.849 20.9475 13.7975C18.9646 12.2137 16.1322 10.1537 12.3089 8.13205C12.3051 8.13008 12.3009 8.12903 12.2967 8.12903C12.2925 8.12903 12.2883 8.12799 12.2846 8.12601C11.8867 7.91506 11.4804 7.70411 11.0629 7.49183C10.225 7.06574 9.59103 6.67503 10.1182 5.89677C10.5938 5.19478 11.8487 4.41292 12.6566 4.67029C15.1962 5.47933 17.3919 5.91851 19.0924 6.17085C21.2567 6.49292 22.983 6.58309 23.8977 6.60886C24.9541 6.66039 26.6933 6.72481 28.9606 6.55733C29.7594 6.49292 31.1378 6.40274 32.8384 6.10643C34.0999 5.87974 35.7083 5.50225 37.5655 4.86434C38.612 4.5049 39.783 4.85912 40.3936 5.78192C40.6197 6.12369 40.8475 6.46623 41.0792 6.80878C41.0818 6.81266 41.0862 6.81499 41.0909 6.81499Z" fill="#E2DFD0"/>
<path d="M9.8986 6.87542C10.1698 7.00532 10.1042 7.15136 9.85537 6.9825C9.78472 6.9354 9.7033 6.8883 9.6308 6.83136C9.61785 6.82119 9.61023 6.80541 9.61321 6.78922C9.61485 6.78025 9.61728 6.7705 9.62049 6.75997C9.6222 6.75436 9.62743 6.75061 9.6333 6.75061C9.63532 6.75061 9.63731 6.75106 9.63913 6.75192C9.72615 6.79308 9.81263 6.83425 9.8986 6.87542Z" fill="#E2DFD0"/>
<path d="M19.0408 38.0172C20.1578 38.0172 21.0634 37.1116 21.0634 35.9946C21.0634 34.8775 20.1578 33.972 19.0408 33.972C17.9237 33.972 17.0182 34.8775 17.0182 35.9946C17.0182 37.1116 17.9237 38.0172 19.0408 38.0172Z" fill="#E2DFD0"/>
<path d="M22.7511 39.6791C23.8682 39.6791 24.7737 38.7736 24.7737 37.6565C24.7737 36.5395 23.8682 35.6339 22.7511 35.6339C21.6341 35.6339 20.7285 36.5395 20.7285 37.6565C20.7285 38.7736 21.6341 39.6791 22.7511 39.6791Z" fill="#E2DFD0"/>
<path d="M8.78772 8.85102C8.18084 8.40474 7.42097 8.64742 7.00524 9.27562L6.65605 9.80329C6.30414 10.3351 6.0216 10.752 6.53113 11.1355C7.08402 11.5515 8.29006 11.8353 8.70303 11.2801L9.10678 10.7373C9.53625 10.16 9.36743 9.27731 8.78772 8.85102Z" fill="#E2DFD0"/>
<path d="M41.373 14.3256C41.3702 14.3256 41.3684 14.3227 41.3697 14.3202C41.3954 14.2713 41.4322 14.2336 41.4571 14.1839C41.5472 14.0422 41.6374 13.9134 41.7405 13.7717C41.8435 13.6429 41.9337 13.514 42.0368 13.3852C42.0883 13.3208 42.1398 13.2564 42.1914 13.2048C42.449 12.8957 42.7196 12.6251 42.9772 12.3675C43.0288 12.3159 43.0803 12.2644 43.1318 12.2129C43.1705 12.1742 43.1962 12.1484 43.2349 12.1227C43.2735 12.0969 43.2993 12.0583 43.3379 12.0325C43.3766 12.0067 43.4024 11.9681 43.441 11.9423C43.5064 11.8842 43.5708 11.828 43.634 11.774C44.3001 11.2035 44.508 10.2062 44.0215 9.47643L43.225 8.28168C43.1878 8.22582 43.1104 8.20772 43.0545 8.24496C43.0159 8.27072 42.9901 8.2836 42.9515 8.30937C42.8999 8.34802 42.8484 8.37378 42.7969 8.41243C42.7778 8.42513 42.7619 8.43783 42.746 8.45053C42.7128 8.47714 42.6724 8.49826 42.6423 8.52838C42.5779 8.57991 42.5006 8.61856 42.4361 8.67009C42.23 8.8118 42.011 8.97928 41.792 9.14675C41.7534 9.17252 41.7276 9.19828 41.6889 9.22405C41.0448 9.72648 40.3491 10.332 39.6277 11.0405C39.5117 11.1565 39.4087 11.2724 39.2927 11.3884C36.9738 14.3385 36.407 17.5979 37.7081 20.6125C37.8112 20.8444 37.9014 21.0762 38.0045 21.3081C38.0818 21.4756 38.1462 21.656 38.2235 21.8235C38.3136 22.0553 38.4167 22.2744 38.5069 22.5062C38.5713 22.6737 38.6486 22.8412 38.713 23.0087C38.8418 23.3436 38.9836 23.6657 39.0995 24.0006C40.0271 26.384 40.6841 28.5869 40.7743 30.6095C40.8773 32.9027 40.1817 34.732 38.5584 36.3682C38.1462 36.7804 37.6824 37.1669 37.1542 37.5534C34.074 39.8166 29.7449 41.6825 27.1587 42.6807C26.4789 42.9432 26.0234 43.5913 26.0234 44.32C26.0234 45.4991 27.1689 46.3207 28.269 45.8967C31.0209 44.8359 35.7407 42.8164 39.1768 40.2845C39.8467 39.795 40.4393 39.2926 40.9546 38.7772C42.6036 37.1411 43.5312 35.3762 43.9306 33.5339C44.5489 30.7384 43.995 27.7495 42.9772 24.6963C42.9386 24.5675 42.8999 24.4515 42.8484 24.3227C42.7582 24.0522 42.668 23.7945 42.565 23.524C42.5263 23.4338 42.5006 23.3436 42.4619 23.2534C42.3589 22.9829 42.2558 22.7252 42.1527 22.4547C42.1012 22.3259 42.0497 22.2099 42.011 22.0811C41.8822 21.7719 41.7534 21.4627 41.6245 21.1407C41.573 21.0118 41.5215 20.8959 41.4699 20.7671C41.3669 20.5223 41.2638 20.2646 41.1479 20.0199C41.0963 19.891 41.0448 19.7751 40.9933 19.6463C40.9417 19.5174 40.8902 19.4015 40.8387 19.2726C40.2976 18.023 40.3491 16.8378 40.697 15.7685C40.8637 15.2682 41.1071 14.7807 41.3763 14.3314C41.3778 14.3289 41.376 14.3256 41.373 14.3256Z" fill="#E2DFD0"/>

</svg>
