<svg width="67" height="70" viewBox="0 0 67 70" fill="none" xmlns="http://www.w3.org/2000/svg">
<path d="M6.14233 4.13965C6.15607 4.13965 6.16101 4.14805 6.16278 4.15409C6.16374 4.15735 6.16653 4.16013 6.16992 4.16013C6.17546 4.16013 6.17797 4.15355 6.17342 4.1504C6.16306 4.14324 6.1527 4.13965 6.14233 4.13965Z" fill="#E3E3E3" fill-opacity="0.3"/>
<path d="M59.9382 4.26571C59.9613 4.26571 59.9702 4.29512 59.9508 4.30755C59.8231 4.38922 59.7095 4.4485 59.5959 4.53888C58.9354 4.98015 57.3283 5.82068 54.3782 6.66121C51.4282 7.50174 47.1572 8.34227 41.0809 8.76254C38.6812 8.93065 36.0174 9.03571 33.0453 9.03571C31.9823 9.03571 31.1165 9.02496 30.3521 9.0073C29.2638 8.98216 28.7846 10.3781 29.6549 11.032C32.4068 13.1333 38.285 17.6302 42.8862 24.3334C44.7795 27.0441 52.7711 39.1477 48.2139 46.2502C47.8837 46.8176 45.6821 50.2217 41.7854 50.9152C39.8701 51.2304 38.2189 50.7891 37.5805 50.621C35.6211 50.0536 34.9386 49.2341 31.4161 46.7125C28.6202 44.7163 27.2112 43.7286 26.1985 43.5605C22.8741 43.0142 19.858 45.1365 19.1756 45.6198C16.4898 47.511 12.4171 52.3228 12.1527 52.5752C12.1526 52.5752 12.1527 52.5752 12.1526 52.5752C12.106 52.6198 12.0405 52.6406 11.9935 52.6847C11.9291 52.7451 11.8564 52.8109 11.7531 52.896C11.7408 52.9062 11.7287 52.9226 11.7201 52.9361C11.6701 53.0143 11.6478 53.1364 11.7186 53.1964C12.1802 53.588 12.6771 53.9662 13.2094 54.3614C18.3397 57.9418 25.5128 60.9212 29.9692 62.5894C31.3335 63.1001 32.2527 64.3931 32.2527 65.8498C32.2527 67.7447 30.7935 68.8191 29.0112 68.1758C24.4191 66.5184 15.8982 63.1188 9.77497 58.8162C-3.69847 49.3602 1.38709 36.8573 6.93498 24.5435C8.27419 21.5876 7.5004 18.8381 6.06544 16.5909C5.29627 15.3863 5.21825 13.8079 6.11691 12.6966L6.76545 11.8946C7.46653 11.0277 8.76483 10.9176 9.55482 11.7044C13.4956 16.5164 14.4863 21.8328 12.2627 26.7499C9.5328 32.8017 7.22118 38.2232 7.02305 43.0142C6.97901 44.0228 7.02305 44.9894 7.17716 45.872C7.21856 46.1882 7.2989 46.5043 7.36325 46.803C7.36857 46.8277 7.39889 46.8371 7.41715 46.8197C7.41859 46.8183 7.41992 46.8168 7.42109 46.8151C8.52094 45.2824 9.31271 44.1068 9.42273 43.9178C12.095 39.8956 15.7269 37.6688 16.1967 37.3912C16.2312 37.3708 16.2637 37.3526 16.2987 37.3332C17.6933 36.5595 20.9437 34.7409 25.0317 35.2183C27.1892 35.4914 28.7743 36.311 30.0072 36.9624C35.0047 39.589 35.8412 42.8671 38.1529 42.5939C39.5754 42.4224 40.5599 41.0358 41.0581 40.1068C41.3461 39.5698 41.5806 38.9945 41.6578 38.39C41.8119 37.1842 41.589 34.8713 39.2977 30.7004C38.4391 29.1664 34.8946 22.9885 25.9563 15.9911C25.7802 15.865 25.6261 15.7389 25.516 15.6549C22.1273 13.0716 17.2871 9.71152 10.7535 6.41403C10.7471 6.41078 10.7399 6.40905 10.7327 6.40905C10.7254 6.40905 10.7183 6.40735 10.7118 6.40408C10.0394 6.06378 9.35275 5.72347 8.64761 5.38107C7.21336 4.68461 6.13805 3.99144 7.06326 2.69293C7.85333 1.58411 9.89872 0.323877 11.2005 0.722587C15.6029 2.0709 19.407 2.79882 22.3458 3.21504C26.0444 3.74037 28.9944 3.88746 30.5575 3.92949C32.3628 4.01354 35.3349 4.11861 39.2096 3.84544C40.5746 3.74037 42.9302 3.59328 45.8362 3.10998C48.0134 2.73657 50.7951 2.1123 54.0087 1.05304C55.7546 0.477565 57.6917 1.05761 58.7389 2.5684C59.1282 3.13001 59.5202 3.69291 59.9191 4.25582C59.9235 4.26202 59.9306 4.26571 59.9382 4.26571Z" fill="#E3E3E3" fill-opacity="0.3"/>
<path d="M6.62891 4.36203C7.07911 4.56781 6.9761 4.80834 6.56063 4.53925C6.4399 4.46242 6.30076 4.3856 6.17686 4.29272C6.15481 4.27619 6.14171 4.24983 6.14703 4.22278C6.14979 4.2087 6.15378 4.19346 6.15899 4.17704C6.16206 4.1674 6.17112 4.16101 6.18124 4.16101C6.18462 4.16101 6.18797 4.16173 6.19105 4.16312C6.33788 4.22942 6.48383 4.29572 6.62891 4.36203Z" fill="#E3E3E3" fill-opacity="0.3"/>
<path d="M22.2576 55.1598C24.1665 55.1598 25.714 53.6828 25.714 51.8607C25.714 50.0387 24.1665 48.5616 22.2576 48.5616C20.3486 48.5616 18.8011 50.0387 18.8011 51.8607C18.8011 53.6828 20.3486 55.1598 22.2576 55.1598Z" fill="#E3E3E3" fill-opacity="0.3"/>
<path d="M28.5981 57.8708C30.5071 57.8708 32.0546 56.3937 32.0546 54.5717C32.0546 52.7496 30.5071 51.2726 28.5981 51.2726C26.6892 51.2726 25.1417 52.7496 25.1417 54.5717C25.1417 56.3937 26.6892 57.8708 28.5981 57.8708Z" fill="#E3E3E3" fill-opacity="0.3"/>
<path d="M4.65585 7.53073C3.64911 6.82883 2.42439 7.22 1.72513 8.22857L1.16048 9.04297C0.530326 9.95185 0.0615422 10.7199 0.957145 11.3688C1.87208 12.0317 3.85562 12.4929 4.55014 11.6017L5.20368 10.7631C5.97166 9.77765 5.68071 8.24526 4.65585 7.53073Z" fill="#E3E3E3" fill-opacity="0.3"/>
<path d="M60.4208 16.5167C60.416 16.5167 60.413 16.5117 60.4153 16.5075C60.4592 16.428 60.522 16.3665 60.5644 16.2856C60.7185 16.0544 60.8726 15.8443 61.0488 15.6132C61.2249 15.403 61.379 15.1929 61.5551 14.9828C61.6432 14.8777 61.7312 14.7726 61.8193 14.6886C62.2596 14.1843 62.7219 13.743 63.1622 13.3227C63.2503 13.2387 63.3384 13.1546 63.4264 13.0706C63.4925 13.0075 63.5365 12.9655 63.6025 12.9235C63.6686 12.8814 63.7126 12.8184 63.7787 12.7764C63.8447 12.7344 63.8887 12.6713 63.9548 12.6293C64.0477 12.5505 64.1394 12.4739 64.2297 12.3997C65.3829 11.4512 65.7379 9.73976 64.8829 8.51563L63.5879 6.66156C63.5222 6.56755 63.3911 6.53691 63.2943 6.59847C63.2283 6.6405 63.1842 6.66151 63.1182 6.70354C63.0301 6.76658 62.9421 6.8086 62.854 6.87164C62.8214 6.89237 62.7942 6.91309 62.7671 6.93382C62.7101 6.97733 62.6417 7.01127 62.5898 7.06077C62.4798 7.14482 62.3477 7.20786 62.2376 7.29191C61.8853 7.52306 61.5111 7.79623 61.1368 8.0694C61.0708 8.11143 61.0267 8.15345 60.9607 8.19548C59.8599 9.015 58.6711 10.0026 57.4382 11.1584C57.2401 11.3475 57.064 11.5366 56.8658 11.7257C52.9031 16.5378 51.9344 21.8541 54.1579 26.7712C54.334 27.1495 54.4882 27.5277 54.6643 27.9059C54.7964 28.1791 54.9064 28.4733 55.0385 28.7465C55.1926 29.1247 55.3688 29.4819 55.5229 29.8602C55.633 30.1333 55.7651 30.4065 55.8751 30.6797C56.0953 31.226 56.3375 31.7514 56.5356 32.2977C58.1207 36.1852 59.2435 39.7784 59.3976 43.0775C59.5737 46.8179 58.3849 49.8018 55.6109 52.4705C54.9065 53.1429 54.1139 53.7733 53.2113 54.4037C47.9311 58.1068 40.5035 61.1576 36.0889 62.7821C34.9545 63.1996 34.1899 64.2714 34.1899 65.4802C34.1899 67.3951 36.038 68.7409 37.8362 68.0827C42.5089 66.3723 50.7154 63.0447 56.6677 58.8585C57.8125 58.06 58.8252 57.2405 59.7058 56.3999C62.5238 53.7313 64.1089 50.8524 64.7914 47.8475C65.8481 43.2877 64.9015 38.4126 63.1622 33.4324C63.0962 33.2223 63.0301 33.0332 62.9421 32.823C62.788 32.3818 62.6339 31.9615 62.4577 31.5202C62.3917 31.3731 62.3477 31.226 62.2816 31.0789C62.1055 30.6377 61.9294 30.2174 61.7532 29.7761C61.6652 29.566 61.5771 29.3769 61.5111 29.1667C61.2909 28.6624 61.0708 28.1581 60.8506 27.6328C60.7626 27.4226 60.6745 27.2335 60.5864 27.0234C60.4103 26.6241 60.2342 26.2039 60.036 25.8046C59.948 25.5945 59.8599 25.4054 59.7719 25.1952C59.6838 24.9851 59.5957 24.796 59.5077 24.5858C58.583 22.5475 58.6711 20.6143 59.2655 18.8702C59.5504 18.0543 59.9663 17.2593 60.4262 16.5265C60.4289 16.5222 60.4258 16.5167 60.4208 16.5167Z" fill="#E3E3E3" fill-opacity="0.3"/>
</svg>
