<svg width="50" height="50" viewBox="0 0 50 50" fill="none" xmlns="http://www.w3.org/2000/svg">
<g filter="url(#filter0_d_676_12392)">
<path fill-rule="evenodd" clip-rule="evenodd" d="M13.9139 6.70376C20.6173 5.96073 27.3823 5.96073 34.0856 6.70376C37.7971 7.11976 40.7914 10.0426 41.2269 13.7671C42.0221 20.566 42.0221 27.4345 41.2269 34.2334C40.7914 37.9579 37.7971 40.8808 34.0856 41.2968C27.3823 42.0399 20.6173 42.0399 13.9139 41.2968C10.2024 40.8808 7.20811 37.9579 6.77261 34.2334C5.97749 27.4352 5.97749 20.5675 6.77261 13.7693C6.99289 11.9598 7.81777 10.2778 9.11355 8.99575C10.4093 7.71374 12.1001 6.90687 13.9118 6.70592M23.9998 13.1821C24.4308 13.1821 24.8441 13.3533 25.1488 13.658C25.4536 13.9628 25.6248 14.3761 25.6248 14.8071V22.3753H33.1929C33.6239 22.3753 34.0372 22.5465 34.342 22.8512C34.6467 23.156 34.8179 23.5693 34.8179 24.0003C34.8179 24.4312 34.6467 24.8446 34.342 25.1493C34.0372 25.4541 33.6239 25.6253 33.1929 25.6253H25.6248V33.1934C25.6248 33.6244 25.4536 34.0377 25.1488 34.3425C24.8441 34.6472 24.4308 34.8184 23.9998 34.8184C23.5688 34.8184 23.1555 34.6472 22.8507 34.3425C22.546 34.0377 22.3748 33.6244 22.3748 33.1934V25.6253H14.8066C14.3756 25.6253 13.9623 25.4541 13.6576 25.1493C13.3528 24.8446 13.1816 24.4312 13.1816 24.0003C13.1816 23.5693 13.3528 23.156 13.6576 22.8512C13.9623 22.5465 14.3756 22.3753 14.8066 22.3753H22.3748V14.8071C22.3748 14.3761 22.546 13.9628 22.8507 13.658C23.1555 13.3533 23.5688 13.1821 23.9998 13.1821Z" fill="url(#paint0_linear_676_12392)" shape-rendering="crispEdges"/>
</g>
<defs>
<filter id="filter0_d_676_12392" x="0.17627" y="0.146484" width="51.647" height="51.708" filterUnits="userSpaceOnUse" color-interpolation-filters="sRGB">
<feFlood flood-opacity="0" result="BackgroundImageFix"/>
<feColorMatrix in="SourceAlpha" type="matrix" values="0 0 0 0 0 0 0 0 0 0 0 0 0 0 0 0 0 0 127 0" result="hardAlpha"/>
<feOffset dx="2" dy="2"/>
<feGaussianBlur stdDeviation="4"/>
<feComposite in2="hardAlpha" operator="out"/>
<feColorMatrix type="matrix" values="0 0 0 0 0.557813 0 0 0 0 0.875 0 0 0 0 0.869369 0 0 0 0.28 0"/>
<feBlend mode="normal" in2="BackgroundImageFix" result="effect1_dropShadow_676_12392"/>
<feBlend mode="normal" in="SourceGraphic" in2="effect1_dropShadow_676_12392" result="shape"/>
</filter>
<linearGradient id="paint0_linear_676_12392" x1="12.3225" y1="12.6524" x2="91.717" y2="89.604" gradientUnits="userSpaceOnUse">
<stop stop-color="#4DC6C3"/>
<stop offset="0.378165" stop-color="#5268A9"/>
<stop offset="0.507" stop-color="#8EDFDE"/>
<stop offset="0.813" stop-color="#C0ECE2"/>
<stop offset="1" stop-color="#0AB3B0" stop-opacity="0.42"/>
</linearGradient>
</defs>
</svg>
