<svg width="25" height="10" viewBox="0 0 12 7" fill="none" xmlns="http://www.w3.org/2000/svg">
<path fill-rule="evenodd" clip-rule="evenodd" d="M1.00021 6.99979C0.802463 6.99974 0.609164 6.94107 0.444755 6.83119C0.280345 6.7213 0.152205 6.56514 0.0765352 6.38244C0.000864983 6.19974 -0.0189381 5.99871 0.0196295 5.80476C0.058197 5.6108 0.153402 5.43264 0.293212 5.29279L5.29321 0.292787C5.48074 0.105316 5.73505 0 6.00021 0C6.26538 0 6.51969 0.105316 6.70721 0.292787L11.7072 5.29279C11.847 5.43264 11.9422 5.6108 11.9808 5.80476C12.0194 5.99871 11.9996 6.19974 11.9239 6.38244C11.8482 6.56514 11.7201 6.7213 11.5557 6.83119C11.3913 6.94107 11.198 6.99974 11.0002 6.99979L1.00021 6.99979Z" fill="#32012F"/>
</svg>
