<?xml version="1.0" encoding="UTF-8"?>
<svg xmlns="http://www.w3.org/2000/svg" version="1.1" viewBox="0 0 1000 1000">
  <defs>
    <style>
      .cls-1, .cls-2 {
        stroke-width: 0px;
      }

      .cls-1, .cls-3 {
        fill: #832e1a;
      }

      .cls-2 {
        fill: #f6e4da;
      }

      .cls-3 {
        font-family: GratefullRegular, Gratefull;
        font-size: 54.9px;
      }

      .cls-4 {
        fill: none;
        stroke: #832e1a;
        stroke-miterlimit: 10;
      }
    </style>
  </defs>
  <g id="Layer_2" data-name="Layer 2">
    <rect class="cls-2" x=".5" width="999.5" height="1003.8"/>
  </g>
  <g id="Layer_1" data-name="Layer 1">
    <g>
      <path class="cls-1" d="M522.9,454.9c-5.4-7.9-16.4-10.5-25.5-9.9,7.5-2.2,16.8-3,21.8-9.6,2.9-3.6,3.1-10.7.2-14.6-1.4-2-3.2-3.7-5.4-5.1-4.5-2.7-10.4-4.1-15.6-4.1h-5.2c.9.3,1.9.6,2.8,1.1.2,0,.3.1.5.2.1,0,.3.1.4.2,8.9.1,16.9,5.1,16.8,14.5,0,2.8-.6,5.1-1.8,6.9-3.9,6.1-11.8,7.7-18.2,10.3,0,0-.2.1-.3.2-.6.4-1.4.5-2.1.8-.2,0-.4.2-.6.3-.2,0-.4.2-.6.3-2.4,1-4.9,2.4-6.1,4.4v-4.7s0,0,0-.1c-.2-.8,0-1.7,0-2.5v-29.7c0-.6,0-1.2,0-1.7,0,0,0,0,0-.1h-16v.2c3.5.5,6.7,3.2,7,6.7v24.2c0,0,0,.2,0,.2v35.6c0,1.8-.6,3.4-1.9,4.8l-.5.4c-1.2,1.2-2.7,2-4.6,2.2h0c0,.1,27.4.1,27.4.1,10.3,0,17.9-1.9,22.9-5.6,7.2-4.9,9.9-17.8,4.8-25.5ZM516.2,472.1c-1.9,5-5.7,8.8-10.9,10.9-5,2.5-15.6,1.5-21.4,1.7v-30.2c2.3-7.7,11.4-9.7,18.5-8,11.8,2.7,18.1,14,13.8,25.6Z"/>
      <path class="cls-1" d="M519.6,418.2c-2.8-4.7-7.5-7.6-12.7-9.6-5.4-2.1-11.5-3.8-17-5.6-4.9-1.7-9.7-3.9-12.7-8-3.5-5-2.1-12.9,1.8-17.8,3.6-4.4,8.5-6.4,14.9-6.3,9.5-.1,17.7,4.1,22.1,11.7l1.4-8c-1.5-.9-3.3-1.7-5.5-2.4-11.2-3.2-28.2-4.5-37.7,3.7-7.1,5.5-8.3,17.5-2.9,24,4.7,5.7,12.1,8.8,19.2,11.1,1.9.3,3.6,1,5.4,1.7.1,0,.2,0,.3.1.2,0,.4,0,.5.2,0,0,.1,0,.2,0,4.8,1.6,10.2,3.9,13.6,7.1,2.3,2,3.4,4.7,3.4,8.1-.2,9.4-8.7,16.4-18.2,16.7-.7.3-1.4.5-2.1.8-.2.1-.4.3-.6.3,11,0,22.6-2.4,27.1-12.4,2-4.7,2-11.3-.5-15.4Z"/>
      <rect class="cls-4" x="458.1" y="364.2" width="78.7" height="134.5" rx="30.1" ry="30.1"/>
      <g>
        <path class="cls-1" d="M488.5,388.4c9.1.6,9.4,1.8,10.2,13.1.5-11.6,1.2-12.4,10.1-13.1,0,0,0,0,0,0-8.9-.7-9.5-1.5-10.1-13.1-.9,11.7-1,12.2-10.2,13.1Z"/>
        <path class="cls-1" d="M486.4,380.6c3.2.2,3.4.7,3.6,4.7.2-4.1.4-4.4,3.6-4.7,0,0,0,0,0,0-3.2-.2-3.4-.5-3.6-4.7-.3,4.1-.4,4.4-3.6,4.7Z"/>
        <path class="cls-1" d="M501.9,396.1c2.2.1,2.3.5,2.5,3.2.1-2.8.3-3,2.5-3.2,0,0,0,0,0,0-2.2-.2-2.3-.4-2.5-3.2-.2,2.8-.3,3-2.5,3.2Z"/>
        <path class="cls-1" d="M504,384c1.9.1,2,.4,2.2,2.8.1-2.5.3-2.6,2.1-2.8,0,0,0,0,0,0-1.9-.1-2-.3-2.1-2.8-.2,2.5-.3,2.6-2.2,2.8Z"/>
      </g>
    </g>
    <text class="cls-3" transform="translate(302.9 547.6)"><tspan x="0" y="0">Beauty Solution</tspan></text>
  </g>
</svg>