<svg width="25" height="24" viewBox="0 0 25 18" fill="none" xmlns="http://www.w3.org/2000/svg">
<path d="M3.5 3C2.70435 3 1.94129 3.31607 1.37868 3.87868C0.816071 4.44129 0.5 5.20435 0.5 6L0.5 15C0.5 15.7956 0.816071 16.5587 1.37868 17.1213C1.94129 17.6839 2.70435 18 3.5 18H21.5C22.2956 18 23.0587 17.6839 23.6213 17.1213C24.1839 16.5587 24.5 15.7956 24.5 15V6C24.5 5.20435 24.1839 4.44129 23.6213 3.87868C23.0587 3.31607 22.2956 3 21.5 3H19.742C18.9464 2.99983 18.1835 2.68365 17.621 2.121L16.379 0.879C15.8165 0.316352 15.0536 0.000169912 14.258 0H10.742C9.94642 0.000169912 9.18348 0.316352 8.621 0.879L7.379 2.121C6.81652 2.68365 6.05358 2.99983 5.258 3H3.5ZM4.25 6C4.05109 6 3.86032 5.92098 3.71967 5.78033C3.57902 5.63968 3.5 5.44891 3.5 5.25C3.5 5.05109 3.57902 4.86032 3.71967 4.71967C3.86032 4.57902 4.05109 4.5 4.25 4.5C4.44891 4.5 4.63968 4.57902 4.78033 4.71967C4.92098 4.86032 5 5.05109 5 5.25C5 5.44891 4.92098 5.63968 4.78033 5.78033C4.63968 5.92098 4.44891 6 4.25 6ZM17.75 9.75C17.75 11.1424 17.1969 12.4777 16.2123 13.4623C15.2277 14.4469 13.8924 15 12.5 15C11.1076 15 9.77226 14.4469 8.78769 13.4623C7.80312 12.4777 7.25 11.1424 7.25 9.75C7.25 8.35761 7.80312 7.02226 8.78769 6.03769C9.77226 5.05312 11.1076 4.5 12.5 4.5C13.8924 4.5 15.2277 5.05312 16.2123 6.03769C17.1969 7.02226 17.75 8.35761 17.75 9.75Z" fill="#554E44"/>
</svg>
