<svg width="22" height="25" viewBox="0 0 22 25" fill="none" xmlns="http://www.w3.org/2000/svg">
    <path d="M1.83337 9.8999C1.83337 8.0139 1.83337 7.0719 2.37054 6.4859C2.90771 5.8999 3.77121 5.8999 5.50004 5.8999H16.5C18.2289 5.8999 19.0924 5.8999 19.6295 6.4859C20.1667 7.0719 20.1667 8.0139 20.1667 9.8999C20.1667 10.3709 20.1667 10.6069 20.0329 10.7539C19.8981 10.8999 19.6809 10.8999 19.25 10.8999H2.75004C2.31829 10.8999 2.10196 10.8999 1.96721 10.7539C1.83337 10.6069 1.83337 10.3699 1.83337 9.8999ZM1.83337 18.8999C1.83337 20.7859 1.83337 21.7279 2.37054 22.3139C2.90771 22.8999 3.77121 22.8999 5.50004 22.8999H16.5C18.2289 22.8999 19.0924 22.8999 19.6295 22.3139C20.1667 21.7279 20.1667 20.7859 20.1667 18.8999V13.8999C20.1667 13.4289 20.1667 13.1929 20.0329 13.0459C19.8981 12.8999 19.6809 12.8999 19.25 12.8999H2.75004C2.31829 12.8999 2.10196 12.8999 1.96721 13.0459C1.83337 13.1929 1.83337 13.4299 1.83337 13.8999V18.8999Z" fill="#4D4D4D"/>
    <path d="M6.41675 3.8999V6.8999M15.5834 3.8999V6.8999" stroke="#4D4D4D" stroke-width="2" stroke-linecap="round"/>
    </svg>
    