<svg width="14" height="14" viewBox="0 0 14 14" fill="none" xmlns="http://www.w3.org/2000/svg">
<path fill-rule="evenodd" clip-rule="evenodd" d="M7 13.75C8.21941 13.7501 9.41607 13.4199 10.4628 12.7944C11.5096 12.1689 12.3674 11.2716 12.9451 10.1977C13.5228 9.12382 13.7987 7.9135 13.7437 6.69534C13.6887 5.47717 13.3047 4.29667 12.6325 3.27925L7.26625 9.24175C7.0156 9.52031 6.66975 9.69496 6.29679 9.73133C5.92382 9.7677 5.55075 9.66314 5.251 9.43825L2.8 7.6C2.64087 7.48065 2.53567 7.30298 2.50754 7.10607C2.47941 6.90915 2.53066 6.70913 2.65 6.55C2.76935 6.39087 2.94702 6.28567 3.14394 6.25754C3.34085 6.22941 3.54087 6.28065 3.7 6.4L6.151 8.23825L11.6605 2.1175C10.8624 1.35558 9.88959 0.800951 8.82738 0.502167C7.76517 0.203383 6.64591 0.169558 5.5676 0.403654C4.48929 0.637751 3.48481 1.13263 2.64211 1.84496C1.79941 2.55729 1.14418 3.46535 0.733812 4.48963C0.323439 5.51391 0.170429 6.62318 0.288179 7.72031C0.405928 8.81744 0.790848 9.86897 1.40923 10.7828C2.02762 11.6967 2.86061 12.4451 3.83528 12.9623C4.80995 13.4796 5.89657 13.7501 7 13.75Z" fill="#FF9233"/>
</svg>
