<svg width="24" height="16" viewBox="0 0 24 16" fill="none" xmlns="http://www.w3.org/2000/svg">
<path d="M12.3942 0.453136C10.7255 0.450324 8.63483 0.977668 6.57233 2.05111C4.51311 3.12454 2.88093 4.53079 1.9228 5.90423C0.964207 7.27298 0.704988 8.54798 1.17655 9.45736C1.64858 10.362 2.84202 10.8824 4.51499 10.8824C6.18796 10.887 8.27858 10.3574 10.3364 9.2886C12.3989 8.21517 14.0301 6.80423 14.9864 5.43548C15.9473 4.06673 16.2005 2.79173 15.7317 1.88235C15.2583 0.977667 14.0676 0.453136 12.3942 0.453136ZM16.702 3.74798C16.538 4.46517 16.1817 5.20111 15.6801 5.91829C14.6208 7.43235 12.8911 8.90892 10.7255 10.0339C8.55983 11.1636 6.36139 11.7308 4.51452 11.7308C3.64264 11.7308 2.83452 11.5995 2.15343 11.323L2.64983 12.2792C3.12233 13.1886 4.31249 13.7089 5.98639 13.7089C7.65983 13.7089 9.75046 13.1839 11.8083 12.1105C13.8708 11.0417 15.502 9.63079 16.4583 8.25735C17.4145 6.8886 17.677 5.61361 17.2036 4.70892L16.702 3.74798ZM18.052 4.53548C18.577 5.78704 18.1551 7.31048 17.152 8.74017C16.2661 10.0105 14.9114 11.2433 13.2333 12.2745C13.7536 12.3308 14.2973 12.3589 14.8505 12.3589C17.1708 12.3589 19.2708 11.862 20.752 11.0886C22.238 10.3152 23.0536 9.30267 23.0536 8.28079C23.0536 7.25892 22.238 6.24642 20.752 5.47298C19.9973 5.07923 19.0786 4.75579 18.052 4.53548ZM23.0536 10.3855C22.5755 10.9433 21.9192 11.4355 21.1458 11.8386C19.5051 12.6917 17.2926 13.2027 14.8505 13.2027C13.8567 13.2027 12.9005 13.1183 12.0051 12.9589C10.9176 13.5074 9.82546 13.9152 8.77546 14.1824C8.83171 14.2152 8.88796 14.2433 8.94889 14.2761C10.4301 15.0495 12.5301 15.5464 14.8505 15.5464C17.1708 15.5464 19.2708 15.0495 20.752 14.2761C22.238 13.5027 23.0536 12.4902 23.0536 11.4683V10.3855Z" fill="url(#paint0_linear_418_10376)"/>
<defs>
<linearGradient id="paint0_linear_418_10376" x1="12.0004" y1="0.453125" x2="12.0004" y2="15.5464" gradientUnits="userSpaceOnUse">
<stop stop-color="#800A78" stop-opacity="0.65"/>
<stop offset="0.42" stop-color="#61055B" stop-opacity="0.74"/>
</linearGradient>
</defs>
</svg>
