<svg width="25" height="24" viewBox="0 0 25 24" fill="none" xmlns="http://www.w3.org/2000/svg">
    <path fill-rule="evenodd" clip-rule="evenodd" d="M12.5004 1.25C12.3014 1.25 12.1107 1.32902 11.97 1.46967C11.8294 1.61032 11.7504 1.80109 11.7504 2V12.973L10.0704 11.012C10.0063 10.9371 9.92808 10.8756 9.84022 10.831C9.75237 10.7864 9.65659 10.7595 9.55835 10.7519C9.4601 10.7443 9.36132 10.7561 9.26764 10.7866C9.17396 10.8172 9.08722 10.8659 9.01236 10.93C8.93751 10.9941 8.87601 11.0723 8.83138 11.1601C8.78675 11.248 8.75986 11.3438 8.75224 11.442C8.74463 11.5403 8.75644 11.639 8.787 11.7327C8.81756 11.8264 8.86628 11.9131 8.93036 11.988L11.9304 15.488C12.0008 15.5703 12.0882 15.6364 12.1866 15.6818C12.285 15.7271 12.392 15.7506 12.5004 15.7506C12.6087 15.7506 12.7157 15.7271 12.8141 15.6818C12.9125 15.6364 13 15.5703 13.0704 15.488L16.0704 11.988C16.1344 11.9131 16.1832 11.8264 16.2137 11.7327C16.2443 11.639 16.2561 11.5403 16.2485 11.442C16.2409 11.3438 16.214 11.248 16.1693 11.1601C16.1247 11.0723 16.0632 10.9941 15.9884 10.93C15.9135 10.8659 15.8268 10.8172 15.7331 10.7866C15.6394 10.7561 15.5406 10.7443 15.4424 10.7519C15.3441 10.7595 15.2484 10.7864 15.1605 10.831C15.0726 10.8756 14.9944 10.9371 14.9304 11.012L13.2504 12.972V2C13.2504 1.80109 13.1713 1.61032 13.0307 1.46967C12.89 1.32902 12.6993 1.25 12.5004 1.25Z" fill="#374151"/>
    <path d="M14.75 9V9.378C15.2174 9.21188 15.7266 9.20492 16.1983 9.35821C16.67 9.51151 17.0778 9.81645 17.3583 10.2256C17.6387 10.6347 17.776 11.1251 17.7488 11.6203C17.7217 12.1156 17.5315 12.588 17.208 12.964L14.208 16.464C13.9968 16.7103 13.7348 16.908 13.4399 17.0436C13.1451 17.1792 12.8245 17.2493 12.5 17.2493C12.1755 17.2493 11.8549 17.1792 11.5601 17.0436C11.2652 16.908 11.0032 16.7103 10.792 16.464L7.792 12.964C7.46938 12.5878 7.28 12.1156 7.25326 11.6207C7.22651 11.1259 7.36391 10.636 7.6441 10.2272C7.9243 9.81843 8.33162 9.5136 8.80283 9.36004C9.27403 9.20648 9.78275 9.2128 10.25 9.378V9H8.5C5.672 9 4.257 9 3.379 9.879C2.5 10.757 2.5 12.172 2.5 15V16C2.5 18.828 2.5 20.243 3.379 21.121C4.257 22 5.672 22 8.5 22H16.5C19.328 22 20.743 22 21.621 21.121C22.5 20.243 22.5 18.828 22.5 16V15C22.5 12.172 22.5 10.757 21.621 9.879C20.743 9 19.328 9 16.5 9H14.75Z" fill="#374151"/>
    </svg>
    