<svg width="25" height="10" viewBox="0 0 12 7" fill="none" xmlns="http://www.w3.org/2000/svg">
<path fill-rule="evenodd" clip-rule="evenodd" d="M10.9998 0.000213623C11.1975 0.000256062 11.3908 0.0589275 11.5552 0.168812C11.7197 0.278696 11.8478 0.43486 11.9235 0.617559C11.9991 0.800259 12.0189 1.00129 11.9804 1.19524C11.9418 1.3892 11.8466 1.56736 11.7068 1.70721L6.70679 6.70721C6.51926 6.89468 6.26495 7 5.99979 7C5.73462 7 5.48031 6.89468 5.29279 6.70721L0.292787 1.70721C0.152978 1.56736 0.057771 1.3892 0.0192034 1.19524C-0.0193641 1.00129 0.000439122 0.800259 0.0761092 0.617559C0.151779 0.43486 0.279919 0.278696 0.444329 0.168812C0.608738 0.0589275 0.802037 0.000256062 0.999787 0.000213623H10.9998Z" fill="#32012F"/>
</svg>
