<svg width="13" height="13" viewBox="0 0 13 13" fill="none" xmlns="http://www.w3.org/2000/svg">
<path d="M4.72077 2.38C5.51265 0.96 5.90827 0.25 6.50015 0.25C7.09202 0.25 7.48765 0.96 8.27952 2.38L8.48452 2.7475C8.70952 3.15125 8.82202 3.35313 8.99702 3.48625C9.17202 3.61938 9.39077 3.66875 9.82827 3.7675L10.2258 3.8575C11.7633 4.20563 12.5314 4.37938 12.7145 4.9675C12.897 5.555 12.3733 6.16813 11.3251 7.39375L11.0539 7.71063C10.7564 8.05875 10.607 8.23313 10.5401 8.44813C10.4733 8.66375 10.4958 8.89625 10.5408 9.36063L10.582 9.78375C10.7401 11.4194 10.8195 12.2369 10.3408 12.6C9.86202 12.9638 9.14202 12.6319 7.70327 11.9694L7.33015 11.7981C6.9214 11.6094 6.71702 11.5156 6.50015 11.5156C6.28327 11.5156 6.0789 11.6094 5.67015 11.7981L5.29765 11.9694C3.85827 12.6319 3.13827 12.9631 2.66015 12.6006C2.18077 12.2369 2.26015 11.4194 2.41827 9.78375L2.45952 9.36125C2.50452 8.89625 2.52702 8.66375 2.45952 8.44875C2.39327 8.23313 2.2439 8.05875 1.9464 7.71125L1.67515 7.39375C0.627022 6.16875 0.103272 5.55563 0.285772 4.9675C0.468897 4.37938 1.23765 4.205 2.77515 3.8575L3.17265 3.7675C3.60952 3.66875 3.82765 3.61938 4.00327 3.48625C4.17827 3.35313 4.29077 3.15125 4.51577 2.7475L4.72077 2.38Z" fill="#E5E7EB"/>
</svg>
