<svg width="24" height="24" viewBox="0 0 24 24" fill="none" xmlns="http://www.w3.org/2000/svg">
<g clip-path="url(#clip0_525_10335)">
<path d="M13.2992 3.14844L21.9332 18.1024C22.0648 18.3305 22.1341 18.5891 22.1341 18.8524C22.1341 19.1157 22.0648 19.3744 21.9332 19.6024C21.8015 19.8304 21.6122 20.0198 21.3842 20.1515C21.1561 20.2831 20.8975 20.3524 20.6342 20.3524H3.36617C3.10287 20.3524 2.84421 20.2831 2.61619 20.1515C2.38816 20.0198 2.19881 19.8304 2.06716 19.6024C1.93552 19.3744 1.86621 19.1157 1.86621 18.8524C1.86621 18.5891 1.93552 18.3305 2.06717 18.1024L10.7012 3.14844C11.2782 2.14844 12.7212 2.14844 13.2992 3.14844ZM12.0002 15.0004C11.735 15.0004 11.4806 15.1058 11.2931 15.2933C11.1055 15.4809 11.0002 15.7352 11.0002 16.0004C11.0002 16.2657 11.1055 16.52 11.2931 16.7075C11.4806 16.8951 11.735 17.0004 12.0002 17.0004C12.2654 17.0004 12.5197 16.8951 12.7073 16.7075C12.8948 16.52 13.0002 16.2657 13.0002 16.0004C13.0002 15.7352 12.8948 15.4809 12.7073 15.2933C12.5197 15.1058 12.2654 15.0004 12.0002 15.0004ZM12.0002 8.00044C11.7552 8.00047 11.5188 8.09039 11.3358 8.25315C11.1528 8.41591 11.0358 8.64019 11.0072 8.88344L11.0002 9.00044V13.0004C11.0005 13.2553 11.0981 13.5005 11.273 13.6858C11.448 13.8711 11.6871 13.9827 11.9416 13.9976C12.196 14.0125 12.4466 13.9298 12.642 13.7662C12.8375 13.6026 12.9631 13.3705 12.9932 13.1174L13.0002 13.0004V9.00044C13.0002 8.73522 12.8948 8.48087 12.7073 8.29333C12.5197 8.10579 12.2654 8.00044 12.0002 8.00044Z" fill="#6B7280"/>
</g>
<defs>
<clipPath id="clip0_525_10335">
<rect width="24" height="24" fill="white"/>
</clipPath>
</defs>
</svg>
