<svg width="20" height="19" viewBox="0 0 20 19" fill="none" xmlns="http://www.w3.org/2000/svg">
<path fill-rule="evenodd" clip-rule="evenodd" d="M1.464 17.6092C2.93 19 5.286 19 10 19C14.714 19 17.071 19 18.535 17.6082C20 16.2184 20 13.9783 20 9.5C20 5.0217 20 2.78255 18.535 1.3908C17.072 0 14.714 0 10 0C5.286 0 2.929 0 1.464 1.3908C0 2.7835 0 5.0217 0 9.5C0 13.9783 0 16.2184 1.464 17.6092ZM12.75 13.3C12.75 13.489 12.671 13.6702 12.5303 13.8038C12.3897 13.9374 12.1989 14.0125 12 14.0125H8C7.80109 14.0125 7.61032 13.9374 7.46967 13.8038C7.32902 13.6702 7.25 13.489 7.25 13.3C7.25 13.111 7.32902 12.9298 7.46967 12.7962C7.61032 12.6626 7.80109 12.5875 8 12.5875H12C12.1989 12.5875 12.3897 12.6626 12.5303 12.7962C12.671 12.9298 12.75 13.111 12.75 13.3ZM14 10.2125C14.1989 10.2125 14.3897 10.1374 14.5303 10.0038C14.671 9.87019 14.75 9.68897 14.75 9.5C14.75 9.31103 14.671 9.12981 14.5303 8.99619C14.3897 8.86257 14.1989 8.7875 14 8.7875H6C5.80109 8.7875 5.61032 8.86257 5.46967 8.99619C5.32902 9.12981 5.25 9.31103 5.25 9.5C5.25 9.68897 5.32902 9.87019 5.46967 10.0038C5.61032 10.1374 5.80109 10.2125 6 10.2125H14ZM16.75 5.7C16.75 5.88897 16.671 6.07019 16.5303 6.20381C16.3897 6.33743 16.1989 6.4125 16 6.4125H4C3.80109 6.4125 3.61032 6.33743 3.46967 6.20381C3.32902 6.07019 3.25 5.88897 3.25 5.7C3.25 5.51103 3.32902 5.32981 3.46967 5.19619C3.61032 5.06257 3.80109 4.9875 4 4.9875H16C16.1989 4.9875 16.3897 5.06257 16.5303 5.19619C16.671 5.32981 16.75 5.51103 16.75 5.7Z" fill="#32012F"/>
</svg>
