<svg width="48" height="48" viewBox="0 0 48 48" fill="none" xmlns="http://www.w3.org/2000/svg">
<path d="M41.2825 0H5.82938C2.59878 0 0 2.59878 0 5.81746V41.2706C0 44.5012 2.59878 47.1 5.82938 47.1H41.2825C44.5012 47.1 47.1 44.5012 47.1 41.2706V5.81746C47.1 2.59878 44.5012 0 41.2825 0ZM23.0433 43.1899C23.0195 43.1899 15.6165 40.7461 10.872 37.2532C3.5763 31.8887 6.33006 24.7957 9.33416 17.81C10.071 16.1061 9.62653 14.5231 8.82549 13.237C8.4216 12.5886 8.38131 11.7498 8.84809 11.145L9.24674 10.6285C9.61843 10.147 10.3319 10.0871 10.7528 10.5263C12.8866 13.2562 13.4231 16.2722 12.2191 19.0617C10.7408 22.495 9.48913 25.5706 9.38184 28.2886C9.358 28.8608 9.38184 29.4092 9.46529 29.9099C9.48774 30.0894 9.53133 30.269 9.5662 30.4387C9.56896 30.4521 9.58559 30.4571 9.5953 30.4474C9.59605 30.4467 9.59674 30.4459 9.59733 30.445C10.1929 29.5754 10.6217 28.9084 10.6812 28.8012C12.0889 26.5815 13.9882 25.3256 14.3247 25.1139C14.3595 25.0921 14.3939 25.0719 14.4294 25.0513C15.1978 24.6046 16.9436 23.598 19.1332 23.8659C20.3015 24.0209 21.1598 24.4858 21.8274 24.8553C24.5335 26.3455 24.9865 28.2051 26.2382 28.0502C26.8638 27.9712 27.3329 27.4375 27.6316 26.9574C27.9414 26.4595 28.1575 25.8893 28.1567 25.3029C28.1557 24.552 27.9077 23.3047 26.8581 21.3029C26.3932 20.4326 24.4739 16.9279 19.6339 12.9582C19.5386 12.8866 19.4551 12.8151 19.3955 12.7674C17.5606 11.3019 14.9397 9.39567 11.4018 7.52496C11.3983 7.52314 11.3945 7.52217 11.3905 7.52217C11.3866 7.52217 11.3828 7.52121 11.3793 7.51937C11.0112 7.32417 10.6351 7.12897 10.2489 6.93254C9.47351 6.53826 8.88686 6.17672 9.37472 5.45656C9.81477 4.80698 10.976 4.08349 11.7235 4.32164C14.0736 5.07028 16.1053 5.47668 17.6789 5.71018C19.6816 6.0082 21.279 6.09164 22.1254 6.11549C23.1029 6.16317 24.7123 6.22278 26.8104 6.06781C27.5495 6.0082 28.825 5.92475 30.3986 5.65057C31.6583 5.42422 33.2918 5.03536 35.1849 4.35658C35.9092 4.0969 36.7251 4.34394 37.1491 4.98597C37.3889 5.34919 37.6297 5.71374 37.8746 6.0785C37.9598 6.20534 37.9189 6.36339 37.8016 6.4612C37.4439 6.71154 36.5737 7.18838 34.9763 7.66522C33.3789 8.14206 31.0662 8.6189 27.776 8.85732C26.4766 8.95269 25.0342 9.01229 23.4248 9.01229C22.8646 9.01229 22.4055 9.00652 21.9998 8.99697C21.3849 8.98251 21.1058 9.76439 21.589 10.1448C23.0791 11.3369 26.262 13.888 28.7535 17.6908C29.7787 19.2286 34.1061 26.0951 31.6384 30.1244C31.4596 30.4463 30.2675 32.3775 28.1575 32.7709C27.1203 32.9497 26.2263 32.6994 25.8805 32.604C24.8196 32.2821 24.45 31.8172 22.5427 30.3867C21.0287 29.2542 20.2657 28.6939 19.7174 28.5985C17.9173 28.2886 16.2841 29.4926 15.9146 29.7668C14.4602 30.8397 12.2548 33.5696 12.1118 33.7127C12.1118 33.7127 12.1118 33.7127 12.1118 33.7127C12.0868 33.7376 12.0512 33.7496 12.0261 33.7743C11.9912 33.8086 11.9518 33.846 11.8957 33.8944C11.8888 33.9003 11.8821 33.91 11.8773 33.9178C11.85 33.9623 11.8374 34.0301 11.8764 34.0648C12.1265 34.287 12.3957 34.5017 12.684 34.726C15.4469 36.7462 19.304 38.4291 21.7198 39.3783C22.4841 39.6787 22.9957 40.4096 22.9957 41.2308V43.1422C22.9957 43.1685 23.017 43.1899 23.0433 43.1899Z" fill="#32012F"/>
<path d="M8.89307 6.23462C8.90076 6.23462 8.90348 6.23958 8.90445 6.2431C8.90496 6.24496 8.90655 6.24654 8.90848 6.24654C8.91159 6.24654 8.91305 6.24287 8.91054 6.24103C8.90472 6.23676 8.89889 6.23462 8.89307 6.23462Z" fill="#E2DFD0"/>
<path d="M38.0231 6.30621C38.0358 6.30621 38.0409 6.32231 38.0303 6.3294C37.9609 6.37601 37.8991 6.40971 37.8373 6.46118C37.4797 6.71152 36.6095 7.18836 35.0121 7.6652C33.4146 8.14204 31.102 8.61888 27.8118 8.8573C26.5124 8.95267 25.0699 9.01227 23.4606 9.01227C22.9004 9.01227 22.4413 9.00649 22.0355 8.99695C21.4207 8.98249 21.1415 9.76437 21.6247 10.1448C23.1149 11.3369 26.2978 13.888 28.7893 17.6908C29.8145 19.2286 34.1418 26.0951 31.6742 30.1244C31.4953 30.4463 30.3033 32.3775 28.1932 32.7709C27.1561 32.9497 26.262 32.6994 25.9163 32.604C24.8553 32.2821 24.4858 31.8172 22.5784 30.3867C21.0645 29.2542 20.3015 28.6939 19.7531 28.5985C17.9531 28.2886 16.3199 29.4926 15.9503 29.7668C14.496 30.8396 12.2907 33.5694 12.1475 33.7126C12.1475 33.7126 12.1475 33.7126 12.1475 33.7126C12.1226 33.7376 12.087 33.7496 12.0619 33.7743C12.027 33.8086 11.9875 33.8459 11.9315 33.8944C11.9246 33.9003 11.9178 33.91 11.9131 33.9178C11.8858 33.9622 11.8732 34.0301 11.9122 34.0648C12.1622 34.287 12.4314 34.5017 12.7197 34.7259C15.4827 36.7461 19.3397 38.4291 21.7555 39.3783C22.5198 39.6786 23.0314 40.4096 23.0314 41.2307C23.0314 42.3127 22.1999 42.914 21.1884 42.5297C18.6823 41.5777 14.1371 39.6657 10.8601 37.2532C3.56438 31.8887 6.31814 24.7957 9.32224 17.81C10.0591 16.106 9.61461 14.5231 8.81357 13.237C8.40967 12.5886 8.36939 11.7497 8.83616 11.145L9.23482 10.6285C9.6065 10.1469 10.3199 10.087 10.7408 10.5262C12.8747 13.2562 13.4112 16.2722 12.2071 19.0617C10.7289 22.495 9.47721 25.5706 9.36992 28.2886C9.34608 28.8608 9.36992 29.4092 9.45337 29.9098C9.47582 30.0894 9.5194 30.269 9.55427 30.4386C9.55703 30.4521 9.57366 30.4571 9.58337 30.4474C9.58412 30.4467 9.58481 30.4458 9.58541 30.445C10.181 29.5754 10.6097 28.9084 10.6693 28.8012C12.0769 26.5815 13.9763 25.3256 14.3128 25.1139C14.3475 25.0921 14.382 25.0719 14.4175 25.0512C15.1859 24.6046 16.9317 23.598 19.1213 23.8659C20.2896 24.0209 21.1479 24.4858 21.8155 24.8553C24.5216 26.3454 24.9746 28.2051 26.2263 28.0502C26.8518 27.9711 27.321 27.4374 27.6197 26.9574C27.9295 26.4595 28.1456 25.8893 28.1448 25.3029C28.1438 24.552 27.8958 23.3046 26.8461 21.3029C26.3812 20.4326 24.4619 16.9278 19.622 12.9581C19.5266 12.8866 19.4432 12.8151 19.3836 12.7674C17.5487 11.3018 14.9277 9.39565 11.3899 7.52494C11.3864 7.52312 11.3825 7.52214 11.3786 7.52214C11.3747 7.52214 11.3708 7.52119 11.3674 7.51935C10.9992 7.32415 10.6232 7.12895 10.2369 6.93252C9.46159 6.53824 8.87494 6.1767 9.3628 5.45654C9.80285 4.80696 10.964 4.08347 11.7116 4.32162C14.0617 5.07026 16.0934 5.47666 17.667 5.71015C19.6697 6.00818 21.2671 6.09162 22.1135 6.11546C23.091 6.16315 24.7004 6.22276 26.7985 6.06778C27.5376 6.00818 28.8131 5.92473 30.3867 5.65055C31.5541 5.44079 33.0424 5.09147 34.761 4.50119C35.7293 4.16858 36.8129 4.49636 37.3779 5.35027C37.5871 5.66652 37.7979 5.98349 38.0123 6.30046C38.0147 6.30405 38.0187 6.30621 38.0231 6.30621Z" fill="#E2DFD0"/>
<path d="M9.15957 6.36207C9.41054 6.48228 9.34983 6.61741 9.11957 6.46116C9.05419 6.41757 8.97885 6.37399 8.91176 6.3213C8.89978 6.31189 8.89273 6.29729 8.89548 6.28231C8.89701 6.27401 8.89925 6.26499 8.90222 6.25524C8.9038 6.25005 8.90865 6.24658 8.91408 6.24658C8.91594 6.24658 8.91779 6.247 8.91948 6.2478C9 6.28588 9.08002 6.32397 9.15957 6.36207Z" fill="#E2DFD0"/>
<path d="M17.6192 35.1789C18.6529 35.1789 19.4908 34.3409 19.4908 33.3073C19.4908 32.2736 18.6529 31.4357 17.6192 31.4357C16.5856 31.4357 15.7476 32.2736 15.7476 33.3073C15.7476 34.3409 16.5856 35.1789 17.6192 35.1789Z" fill="#E2DFD0"/>
<path d="M21.0525 36.7168C22.0862 36.7168 22.9241 35.8789 22.9241 34.8452C22.9241 33.8116 22.0862 32.9736 21.0525 32.9736C20.0189 32.9736 19.1809 33.8116 19.1809 34.8452C19.1809 35.8789 20.0189 36.7168 21.0525 36.7168Z" fill="#E2DFD0"/>
<path d="M8.13154 8.19028C7.56997 7.77732 6.86682 8.00188 6.48214 8.58319L6.15901 9.07147C5.83337 9.56354 5.57193 9.94938 6.04342 10.3042C6.55503 10.6892 7.67103 10.9518 8.05317 10.4381L8.42678 9.93579C8.82418 9.40153 8.66796 8.58475 8.13154 8.19028Z" fill="#E2DFD0"/>
<path d="M38.2841 13.2562C38.2815 13.2562 38.2798 13.2534 38.281 13.2511C38.3048 13.2059 38.3388 13.171 38.3618 13.125C38.4453 12.9939 38.5287 12.8747 38.6241 12.7436C38.7195 12.6243 38.8029 12.5051 38.8983 12.3859C38.946 12.3263 38.9937 12.2667 39.0413 12.219C39.2798 11.9329 39.5301 11.6826 39.7685 11.4442C39.8162 11.3965 39.8639 11.3488 39.9116 11.3011C39.9473 11.2653 39.9712 11.2415 40.0069 11.2177C40.0427 11.1938 40.0665 11.1581 40.1023 11.1342C40.1381 11.1104 40.1619 11.0746 40.1977 11.0508C40.2582 10.997 40.3178 10.945 40.3762 10.895C40.9926 10.3671 41.185 9.44421 40.7348 8.76896L39.9978 7.66341C39.9633 7.61173 39.8917 7.59497 39.84 7.62943C39.8043 7.65327 39.7804 7.66519 39.7447 7.68903C39.697 7.7248 39.6493 7.74864 39.6016 7.7844C39.584 7.79615 39.5693 7.8079 39.5546 7.81965C39.5238 7.84428 39.4864 7.86382 39.4586 7.89169C39.399 7.93938 39.3274 7.97514 39.2678 8.02282C39.0771 8.15395 38.8744 8.30893 38.6718 8.4639C38.636 8.48774 38.6122 8.51158 38.5764 8.53542C37.9804 9.00034 37.3366 9.56064 36.669 10.2163C36.5618 10.3236 36.4664 10.4309 36.3591 10.5382C34.2133 13.2681 33.6888 16.2841 34.8928 19.0736C34.9882 19.2882 35.0716 19.5028 35.167 19.7174C35.2385 19.8723 35.2981 20.0392 35.3697 20.1942C35.4531 20.4088 35.5485 20.6114 35.6319 20.826C35.6915 20.981 35.7631 21.136 35.8227 21.2909C35.9419 21.6009 36.073 21.8989 36.1803 22.2088C37.0386 24.4142 37.6466 26.4527 37.73 28.3243C37.8254 30.4463 37.1817 32.1391 35.6796 33.653C35.2981 34.0345 34.869 34.3921 34.3802 34.7498C31.5299 36.8441 27.524 38.5706 25.131 39.4943C24.5019 39.7372 24.0804 40.3369 24.0804 41.0113C24.0804 42.1022 25.1404 42.8626 26.1584 42.4702C28.7048 41.4886 33.0723 39.6199 36.2518 37.277C36.8717 36.824 37.4201 36.3591 37.8969 35.8823C39.4228 34.3683 40.2811 32.7351 40.6507 31.0304C41.2229 28.4435 40.7103 25.6779 39.7685 22.8526C39.7328 22.7334 39.697 22.6261 39.6493 22.5069C39.5659 22.2565 39.4824 22.0181 39.387 21.7678C39.3513 21.6843 39.3274 21.6009 39.2917 21.5174C39.1963 21.2671 39.1009 21.0287 39.0056 20.7783C38.9579 20.6591 38.9102 20.5518 38.8744 20.4326C38.7552 20.1465 38.636 19.8604 38.5168 19.5624C38.4691 19.4432 38.4214 19.3359 38.3738 19.2167C38.2784 18.9902 38.183 18.7518 38.0757 18.5253C38.028 18.406 37.9804 18.2987 37.9327 18.1795C37.885 18.0603 37.8373 17.953 37.7896 17.8338C37.2889 16.6775 37.3366 15.5808 37.6585 14.5913C37.8128 14.1284 38.038 13.6772 38.2871 13.2615C38.2885 13.2591 38.2868 13.2562 38.2841 13.2562Z" fill="#E2DFD0"/>
</svg>
