<svg width="14" height="14" viewBox="0 0 15 20" fill="none" xmlns="http://www.w3.org/2000/svg">
<path d="M11.9999 5.8335H8.66658V2.50016C8.66658 2.05814 8.49099 1.63421 8.17843 1.32165C7.86587 1.00909 7.44195 0.833496 6.99992 0.833496C6.55789 0.833496 6.13397 1.00909 5.82141 1.32165C5.50885 1.63421 5.33325 2.05814 5.33325 2.50016L5.39242 5.8335H1.99992C1.55789 5.8335 1.13397 6.00909 0.821407 6.32165C0.508847 6.63421 0.333252 7.05814 0.333252 7.50016C0.333252 7.94219 0.508847 8.36611 0.821407 8.67867C1.13397 8.99123 1.55789 9.16683 1.99992 9.16683L5.39242 9.10766L5.33325 12.5002C5.33325 12.9422 5.50885 13.3661 5.82141 13.6787C6.13397 13.9912 6.55789 14.1668 6.99992 14.1668C7.44195 14.1668 7.86587 13.9912 8.17843 13.6787C8.49099 13.3661 8.66658 12.9422 8.66658 12.5002V9.10766L11.9999 9.16683C12.4419 9.16683 12.8659 8.99123 13.1784 8.67867C13.491 8.36611 13.6666 7.94219 13.6666 7.50016C13.6666 7.05814 13.491 6.63421 13.1784 6.32165C12.8659 6.00909 12.4419 5.8335 11.9999 5.8335Z" fill="#32012F"/>
</svg>
