<svg width="25" height="24" viewBox="0 0 25 24" fill="none" xmlns="http://www.w3.org/2000/svg">
<path d="M8.75 6.75C8.75 4.54421 10.5442 2.75 12.75 2.75C14.9553 2.75 16.7492 4.54343 16.75 6.74855C16.7408 8.91292 15.0551 10.6579 12.9063 10.74H12.9063H12.9062H12.9062H12.9062H12.9061H12.9061H12.906H12.906H12.906H12.9059H12.9059H12.9059H12.9058H12.9058H12.9058H12.9057H12.9057H12.9056H12.9056H12.9056H12.9055H12.9055H12.9055H12.9054H12.9054H12.9053H12.9053H12.9053H12.9052H12.9052H12.9051H12.9051H12.9051H12.905H12.905H12.9049H12.9049H12.9049H12.9048H12.9048H12.9047H12.9047H12.9047H12.9046H12.9046H12.9045H12.9045H12.9045H12.9044H12.9044H12.9043H12.9043H12.9042H12.9042H12.9042H12.9041H12.9041H12.904H12.904H12.9039H12.9039H12.9039H12.9038H12.9038H12.9037H12.9037H12.9036H12.9036H12.9035H12.9035H12.9035H12.9034H12.9034H12.9033H12.9033H12.9032H12.9032H12.9031H12.9031H12.903H12.903H12.9029H12.9029H12.9029H12.9028H12.9028H12.9027H12.9027H12.9026H12.9026H12.9025H12.9025H12.9024H12.9024H12.9023H12.9023H12.9022H12.9022H12.9021H12.9021H12.902H12.902H12.9019H12.9019H12.9018H12.9018H12.9017H12.9017H12.9016H12.9016H12.9015H12.9014H12.9014H12.9013H12.9013H12.9012H12.9012H12.9011H12.9011H12.901H12.901H12.9009H12.9009H12.9008H12.9007H12.9007H12.9006H12.9006H12.9005H12.9005H12.9004H12.9003H12.9003H12.9002H12.9002H12.9001H12.9001H12.9H12.8999H12.8998H12.8996H12.8995H12.8994H12.8993H12.8992H12.8991H12.899H12.8988H12.8987H12.8986H12.8985H12.8984H12.8983H12.8982H12.898H12.8979H12.8978H12.8977H12.8976H12.8975H12.8974C12.7976 10.7297 12.6978 10.7308 12.6069 10.7385C10.4098 10.6383 8.75 8.89467 8.75 6.75Z" fill="url(#paint0_linear_929_29)" stroke="url(#paint1_linear_929_29)" stroke-width="1.5"/>
<path d="M8.08804 19.9672L8.08599 19.9658C6.97756 19.2269 6.45996 18.2975 6.45996 17.3799C6.45996 16.4617 6.97814 15.5226 8.09553 14.7742C9.35288 13.9425 11.0402 13.5049 12.7625 13.5049C14.4857 13.5049 16.1675 13.943 17.4139 14.7739C18.5169 15.5092 19.0313 16.4382 19.04 17.3629C19.0388 18.2902 18.5204 19.2192 17.4111 19.9677C16.1599 20.8076 14.474 21.2499 12.75 21.2499C11.0255 21.2499 9.33937 20.8074 8.08804 19.9672Z" fill="url(#paint2_linear_929_29)" stroke="url(#paint3_linear_929_29)" stroke-width="1.5"/>
<defs>
<linearGradient id="paint0_linear_929_29" x1="9.63798" y1="3.72907" x2="30.7403" y2="24.2385" gradientUnits="userSpaceOnUse">
<stop stop-color="#4DC6C3"/>
<stop offset="0.378165" stop-color="#5268A9"/>
<stop offset="0.507" stop-color="#8EDFDE"/>
<stop offset="0.813" stop-color="#C0ECE2"/>
<stop offset="1" stop-color="#0AB3B0" stop-opacity="0.42"/>
</linearGradient>
<linearGradient id="paint1_linear_929_29" x1="9.63798" y1="3.72907" x2="30.7403" y2="24.2385" gradientUnits="userSpaceOnUse">
<stop stop-color="#4DC6C3"/>
<stop offset="0.378165" stop-color="#5268A9"/>
<stop offset="0.507" stop-color="#8EDFDE"/>
<stop offset="0.813" stop-color="#C0ECE2"/>
<stop offset="1" stop-color="#0AB3B0" stop-opacity="0.42"/>
</linearGradient>
<linearGradient id="paint2_linear_929_29" x1="8.13762" y1="14.4393" x2="27.2249" y2="42.6624" gradientUnits="userSpaceOnUse">
<stop stop-color="#4DC6C3"/>
<stop offset="0.378165" stop-color="#5268A9"/>
<stop offset="0.507" stop-color="#8EDFDE"/>
<stop offset="0.813" stop-color="#C0ECE2"/>
<stop offset="1" stop-color="#0AB3B0" stop-opacity="0.42"/>
</linearGradient>
<linearGradient id="paint3_linear_929_29" x1="8.13762" y1="14.4393" x2="27.2249" y2="42.6624" gradientUnits="userSpaceOnUse">
<stop stop-color="#4DC6C3"/>
<stop offset="0.378165" stop-color="#5268A9"/>
<stop offset="0.507" stop-color="#8EDFDE"/>
<stop offset="0.813" stop-color="#C0ECE2"/>
<stop offset="1" stop-color="#0AB3B0" stop-opacity="0.42"/>
</linearGradient>
</defs>
</svg>
