<svg width="5" height="10" viewBox="0 0 7 12" fill="none" xmlns="http://www.w3.org/2000/svg">
<path fill-rule="evenodd" clip-rule="evenodd" d="M6.99979 10.9998C6.99974 11.1975 6.94107 11.3908 6.83119 11.5552C6.7213 11.7197 6.56514 11.8478 6.38244 11.9235C6.19974 11.9991 5.99871 12.0189 5.80476 11.9804C5.6108 11.9418 5.43264 11.8466 5.29279 11.7068L0.292787 6.70679C0.105316 6.51926 0 6.26495 0 5.99979C0 5.73462 0.105316 5.48031 0.292787 5.29279L5.29279 0.292787C5.43264 0.152978 5.6108 0.057771 5.80476 0.0192034C5.99871 -0.0193641 6.19974 0.000439122 6.38244 0.0761092C6.56514 0.151779 6.7213 0.279919 6.83119 0.444329C6.94107 0.608738 6.99974 0.802037 6.99979 0.999787L6.99979 10.9998Z" fill="#32012F"/>
</svg>
