<svg width="16" height="20" viewBox="0 0 16 20" fill="none" xmlns="http://www.w3.org/2000/svg">
<path d="M5 11C5 11.7956 5.31607 12.5587 5.87868 13.1213C6.44129 13.6839 7.20435 14 8 14C8.79565 14 9.55871 13.6839 10.1213 13.1213C10.6839 12.5587 11 11.7956 11 11C11 10.2044 10.6839 9.44129 10.1213 8.87868C9.55871 8.31607 8.79565 8 8 8C7.20435 8 6.44129 8.31607 5.87868 8.87868C5.31607 9.44129 5 10.2044 5 11ZM16 17.59V6L10 0H2C1.46957 0 0.960859 0.210714 0.585786 0.585786C0.210714 0.960859 0 1.46957 0 2V18C0 18.5304 0.210714 19.0391 0.585786 19.4142C0.960859 19.7893 1.46957 20 2 20H14C14.45 20 14.85 19.85 15.19 19.6L10.76 15.17C9.96 15.69 9 16 8 16C6.67392 16 5.40215 15.4732 4.46447 14.5355C3.52678 13.5979 3 12.3261 3 11C3 9.67392 3.52678 8.40215 4.46447 7.46447C5.40215 6.52678 6.67392 6 8 6C9.32608 6 10.5979 6.52678 11.5355 7.46447C12.4732 8.40215 13 9.67392 13 11C13 12 12.69 12.96 12.17 13.75L16 17.59Z" fill="url(#paint0_linear_418_9349)"/>
<defs>
<linearGradient id="paint0_linear_418_9349" x1="8" y1="0" x2="8" y2="20" gradientUnits="userSpaceOnUse">
<stop stop-color="#800A78" stop-opacity="0.65"/>
<stop offset="0.42" stop-color="#61055B" stop-opacity="0.74"/>
</linearGradient>
</defs>
</svg>
