<svg width="24" height="24" viewBox="0 0 24 24" fill="none" xmlns="http://www.w3.org/2000/svg">
<path d="M21 6.3C21 5.51 20.53 4.79 19.81 4.47L12.81 1.36C12.29 1.13 11.7 1.13 11.19 1.36L4.19 4.47C3.47 4.79 3 5.51 3 6.3V11C3 16.55 6.84 21.74 12 23C14.3 22.44 16.33 21.1 17.88 19.29L14.76 16.17C13.7987 16.8054 12.6472 17.0888 11.5008 16.9721C10.3544 16.8555 9.28364 16.346 8.47 15.53C7.53338 14.592 7.00731 13.3206 7.00731 11.995C7.00731 10.6694 7.53338 9.39803 8.47 8.46C9.40803 7.52338 10.6794 6.99731 12.005 6.99731C13.3306 6.99731 14.602 7.52338 15.54 8.46C16.354 9.27482 16.8621 10.3454 16.9787 11.4912C17.0952 12.637 16.8132 13.7879 16.18 14.75L19.08 17.65C20.29 15.69 21 13.38 21 11V6.3Z" fill="url(#paint0_linear_191_2535)"/>
<path d="M12 15C13.6569 15 15 13.6569 15 12C15 10.3431 13.6569 9 12 9C10.3431 9 9 10.3431 9 12C9 13.6569 10.3431 15 12 15Z" fill="url(#paint1_linear_191_2535)"/>
<defs>
<linearGradient id="paint0_linear_191_2535" x1="6.10354" y1="5.16172" x2="53.4583" y2="43.1016" gradientUnits="userSpaceOnUse">
<stop stop-color="#4DC6C3"/>
<stop offset="0.378165" stop-color="#5268A9"/>
<stop offset="0.507" stop-color="#8EDFDE"/>
<stop offset="0.813" stop-color="#C0ECE2"/>
<stop offset="1" stop-color="#0AB3B0" stop-opacity="0.42"/>
</linearGradient>
<linearGradient id="paint1_linear_191_2535" x1="10.0345" y1="10.0932" x2="23.376" y2="23.0461" gradientUnits="userSpaceOnUse">
<stop stop-color="#4DC6C3"/>
<stop offset="0.378165" stop-color="#5268A9"/>
<stop offset="0.507" stop-color="#8EDFDE"/>
<stop offset="0.813" stop-color="#C0ECE2"/>
<stop offset="1" stop-color="#0AB3B0" stop-opacity="0.42"/>
</linearGradient>
</defs>
</svg>
