<svg width="21" height="22" viewBox="0 0 21 22" fill="none" xmlns="http://www.w3.org/2000/svg">
<path d="M15.089 15.3888C16.4037 15.0278 18.3441 14.1625 19.5624 13.5918L19.2424 17.1169C19.1433 18.0562 18.9127 18.8479 18.3222 19.4224C17.7352 19.9934 16.6552 20.48 14.5589 20.48H6.93887C4.84259 20.48 3.76228 19.9934 3.17514 19.4232C2.58466 18.8497 2.35438 18.0604 2.25529 17.1266L1.95282 13.7994C3.11064 14.3152 4.91869 15.0833 6.14879 15.419C6.93308 17.0188 8.56557 17.77 10.6189 17.77C12.6635 17.77 14.3056 16.9862 15.089 15.3888Z" fill="url(#paint0_linear_1039_22399)" stroke="url(#paint1_linear_1039_22399)" stroke-width="1.5"/>
<path d="M14.7688 4.57002V5.07002H15.2688H15.5088C17.5101 5.07002 18.7567 5.52885 19.4679 6.31529C20.2541 7.18516 20.2986 8.36635 20.2215 9.35663C20.2162 9.39675 20.2132 9.43128 20.2112 9.45486L20.2107 9.46046C20.2082 9.48946 20.207 9.49929 20.2056 9.50782L20.2032 9.52241L20.2016 9.53713L20.1519 10.0048L20.1516 10.0071L20.1362 10.1459C19.7702 10.4098 19.3763 10.6736 19.0028 10.8847L19.0027 10.8846L18.9916 10.8913C18.973 10.9024 18.9564 10.9129 18.9432 10.9214L18.9106 10.9423C18.8941 10.9527 18.8846 10.9581 18.8752 10.9628L18.8606 10.9701L18.8466 10.9783C17.1194 11.9874 15.2078 12.6763 13.229 12.9964L12.8386 13.0596L12.8101 13.454C12.7788 13.8883 12.6715 14.2614 12.4036 14.5319C12.1405 14.7975 11.636 15.05 10.6188 15.05C9.60334 15.05 9.10344 14.7959 8.84213 14.5312C8.57426 14.2599 8.46735 13.8886 8.42654 13.4624L8.38977 13.0783L8.00892 13.0165C6.15262 12.7152 4.32735 12.1031 2.66968 11.1919L2.6697 11.1918L2.66411 11.1888C2.51082 11.1071 2.37913 11.0365 2.2592 10.9594L2.24568 10.9507L2.23164 10.9429C2.0106 10.8201 1.62689 10.5733 1.38387 10.4143L1.30656 9.60261L1.30545 9.59093L1.30379 9.57931L1.29533 9.52011C1.19724 8.52036 1.19944 7.24828 2.03006 6.32495C2.7415 5.53851 3.97832 5.08002 5.98882 5.08002H6.22882H6.72882V4.58002V4.53002C6.72882 3.6604 6.74305 2.8797 7.11943 2.29411C7.45945 1.76508 8.1942 1.27002 9.98882 1.27002H11.5088C13.3043 1.27002 14.0387 1.76312 14.3784 2.29069C14.7545 2.8748 14.7688 3.65499 14.7688 4.53002V4.57002ZM9.37882 11.08H8.87882V11.58V12.84L8.87881 12.8635C8.87879 13.0988 8.87877 13.3274 8.90155 13.5186C8.92541 13.7188 8.98166 13.958 9.15694 14.1575C9.33619 14.3615 9.57436 14.4507 9.80197 14.4951C10.0255 14.5388 10.2972 14.55 10.6088 14.55C10.918 14.55 11.1883 14.5407 11.4097 14.5003C11.6344 14.4593 11.8759 14.3749 12.0583 14.1702C12.2368 13.97 12.2926 13.7275 12.3162 13.526C12.3389 13.3325 12.3388 13.0987 12.3388 12.854L12.3388 12.83V11.58V11.08H11.8388H9.37882ZM13.8388 5.08002H14.3388V4.58002V4.53002V4.50666C14.3388 4.10304 14.3388 3.72042 14.2987 3.39229C14.2573 3.05365 14.1672 2.71107 13.941 2.42265C13.7087 2.12663 13.3812 1.94789 12.9833 1.84295C12.594 1.74027 12.1069 1.70002 11.5088 1.70002H9.98882C9.39117 1.70002 8.90439 1.7396 8.51537 1.84126C8.1179 1.94513 7.78994 2.12257 7.55718 2.41826C7.33039 2.70638 7.24031 3.04914 7.19891 3.38816C7.15879 3.71672 7.1588 4.10054 7.15882 4.50653L7.15882 4.53002V4.57002V4.58002V5.08002H7.65882H13.8388Z" fill="url(#paint2_linear_1039_22399)" stroke="url(#paint3_linear_1039_22399)"/>
<defs>
<linearGradient id="paint0_linear_1039_22399" x1="4.42345" y1="13.9622" x2="19.7121" y2="46.265" gradientUnits="userSpaceOnUse">
<stop stop-color="#4DC6C3"/>
<stop offset="0.378165" stop-color="#5268A9"/>
<stop offset="0.507" stop-color="#8EDFDE"/>
<stop offset="0.813" stop-color="#C0ECE2"/>
<stop offset="1" stop-color="#0AB3B0" stop-opacity="0.42"/>
</linearGradient>
<linearGradient id="paint1_linear_1039_22399" x1="4.42345" y1="13.9622" x2="19.7121" y2="46.265" gradientUnits="userSpaceOnUse">
<stop stop-color="#4DC6C3"/>
<stop offset="0.378165" stop-color="#5268A9"/>
<stop offset="0.507" stop-color="#8EDFDE"/>
<stop offset="0.813" stop-color="#C0ECE2"/>
<stop offset="1" stop-color="#0AB3B0" stop-opacity="0.42"/>
</linearGradient>
<linearGradient id="paint2_linear_1039_22399" x1="4.19952" y1="3.46292" x2="35.8922" y2="45.0931" gradientUnits="userSpaceOnUse">
<stop stop-color="#4DC6C3"/>
<stop offset="0.378165" stop-color="#5268A9"/>
<stop offset="0.507" stop-color="#8EDFDE"/>
<stop offset="0.813" stop-color="#C0ECE2"/>
<stop offset="1" stop-color="#0AB3B0" stop-opacity="0.42"/>
</linearGradient>
<linearGradient id="paint3_linear_1039_22399" x1="4.19952" y1="3.46292" x2="35.8922" y2="45.0931" gradientUnits="userSpaceOnUse">
<stop stop-color="#4DC6C3"/>
<stop offset="0.378165" stop-color="#5268A9"/>
<stop offset="0.507" stop-color="#8EDFDE"/>
<stop offset="0.813" stop-color="#C0ECE2"/>
<stop offset="1" stop-color="#0AB3B0" stop-opacity="0.42"/>
</linearGradient>
</defs>
</svg>
