<svg width="18" height="18" viewBox="0 0 18 18" fill="none" xmlns="http://www.w3.org/2000/svg">
<path fill-rule="evenodd" clip-rule="evenodd" d="M12.0942 8.99978C12.0942 8.8506 12.0349 8.70753 11.9294 8.60204C11.8239 8.49655 11.6809 8.43728 11.5317 8.43728H3.30192L4.77267 7.17728C4.82881 7.12922 4.87493 7.07057 4.90841 7.00468C4.94188 6.93879 4.96205 6.86695 4.96776 6.79327C4.97347 6.71959 4.96461 6.6455 4.94169 6.57524C4.91877 6.50498 4.88223 6.43992 4.83417 6.38378C4.7861 6.32764 4.72745 6.28152 4.66156 6.24805C4.59568 6.21457 4.52384 6.19441 4.45016 6.18869C4.37647 6.18298 4.30239 6.19184 4.23213 6.21476C4.16187 6.23768 4.09681 6.27422 4.04067 6.32228L1.41567 8.57228C1.35392 8.62509 1.30434 8.69065 1.27035 8.76445C1.23635 8.83825 1.21875 8.91853 1.21875 8.99978C1.21875 9.08104 1.23635 9.16132 1.27035 9.23512C1.30434 9.30892 1.35392 9.37448 1.41567 9.42728L4.04067 11.6773C4.15405 11.7744 4.30135 11.8224 4.45016 11.8109C4.59897 11.7993 4.7371 11.7292 4.83417 11.6158C4.93124 11.5024 4.97929 11.3551 4.96776 11.2063C4.95622 11.0575 4.88605 10.9194 4.77267 10.8223L3.30267 9.56228H11.5317C11.6809 9.56228 11.8239 9.50302 11.9294 9.39753C12.0349 9.29204 12.0942 9.14897 12.0942 8.99978Z" fill="#CF222E" fill-opacity="0.77"/>
<path d="M7.03125 6C7.03125 6.5265 7.03125 6.78975 7.158 6.9795C7.21259 7.06108 7.28267 7.13116 7.36425 7.18575C7.554 7.3125 7.81725 7.3125 8.34375 7.3125H11.5313C11.9788 7.3125 12.408 7.49029 12.7245 7.80676C13.041 8.12322 13.2188 8.55245 13.2188 9C13.2188 9.44755 13.041 9.87677 12.7245 10.1932C12.408 10.5097 11.9788 10.6875 11.5313 10.6875H8.34375C7.81725 10.6875 7.554 10.6875 7.36425 10.8135C7.28259 10.8683 7.21251 10.9386 7.158 11.0205C7.03125 11.2102 7.03125 11.4735 7.03125 12C7.03125 14.121 7.03125 15.1822 7.6905 15.8407C8.349 16.5 9.4095 16.5 11.5305 16.5H12.2805C14.403 16.5 15.4628 16.5 16.122 15.8407C16.7813 15.1822 16.7813 14.121 16.7813 12V6C16.7813 3.879 16.7813 2.81775 16.122 2.15925C15.4628 1.5 14.4023 1.5 12.2813 1.5H11.5313C9.4095 1.5 8.349 1.5 7.6905 2.15925C7.03125 2.81775 7.03125 3.879 7.03125 6Z" fill="#CF222E" fill-opacity="0.77"/>
</svg>
