<svg width="33" height="26" viewBox="0 0 33 26" fill="none" xmlns="http://www.w3.org/2000/svg">
<path d="M10.0778 21.7555C9.87778 21.7555 9.67781 21.6819 9.51993 21.524C9.21471 21.2188 9.21471 20.7136 9.51993 20.4083L16.3822 13.546C16.8874 13.0408 16.8874 12.2199 16.3822 11.7147L9.51993 4.85238C9.21471 4.54716 9.21471 4.04196 9.51993 3.73673C9.82516 3.43151 10.3304 3.43151 10.6356 3.73673L17.4979 10.599C18.0347 11.1358 18.3399 11.862 18.3399 12.6304C18.3399 13.3987 18.0452 14.1249 17.4979 14.6617L10.6356 21.524C10.4777 21.6713 10.2777 21.7555 10.0778 21.7555Z" fill="url(#paint0_linear_916_12820)"/>
<path d="M17.0778 21.7555C16.8778 21.7555 16.6778 21.6819 16.5199 21.524C16.2147 21.2188 16.2147 20.7136 16.5199 20.4083L23.3822 13.546C23.8874 13.0408 23.8874 12.2199 23.3822 11.7147L16.5199 4.85238C16.2147 4.54716 16.2147 4.04196 16.5199 3.73673C16.8252 3.43151 17.3304 3.43151 17.6356 3.73673L24.4979 10.599C25.0347 11.1358 25.3399 11.862 25.3399 12.6304C25.3399 13.3987 25.0452 14.1249 24.4979 14.6617L17.6356 21.524C17.4777 21.6713 17.2777 21.7555 17.0778 21.7555Z" fill="url(#paint1_linear_916_12820)"/>
<defs>
<linearGradient id="paint0_linear_916_12820" x1="10.8512" y1="6.83253" x2="42.5829" y2="22.1097" gradientUnits="userSpaceOnUse">
<stop stop-color="#4DC6C3"/>
<stop offset="0.378165" stop-color="#5268A9"/>
<stop offset="0.507" stop-color="#8EDFDE"/>
<stop offset="0.813" stop-color="#C0ECE2"/>
<stop offset="1" stop-color="#0AB3B0" stop-opacity="0.42"/>
</linearGradient>
<linearGradient id="paint1_linear_916_12820" x1="17.8512" y1="6.83253" x2="49.5829" y2="22.1097" gradientUnits="userSpaceOnUse">
<stop stop-color="#4DC6C3"/>
<stop offset="0.378165" stop-color="#5268A9"/>
<stop offset="0.507" stop-color="#8EDFDE"/>
<stop offset="0.813" stop-color="#C0ECE2"/>
<stop offset="1" stop-color="#0AB3B0" stop-opacity="0.42"/>
</linearGradient>
</defs>
</svg>
