<svg width="40" height="40" viewBox="0 0 40 40" fill="none" xmlns="http://www.w3.org/2000/svg">
<g filter="url(#filter0_b_50_12452)">
<rect width="40" height="40" rx="16" fill="white" fill-opacity="0.39"/>
<path d="M15.6813 18.3925L15.1375 20H13.75L16.0775 13.75H17.6825L20 20H18.5413L17.9975 18.3925H15.6813ZM17.7237 17.4725L16.875 14.945H16.8138L15.965 17.4725H17.7237Z" fill="#64025D"/>
<path opacity="0.4" d="M10 12.5C10 11.837 10.2634 11.2011 10.7322 10.7322C11.2011 10.2634 11.837 10 12.5 10H21.25C21.913 10 22.5489 10.2634 23.0178 10.7322C23.4866 11.2011 23.75 11.837 23.75 12.5V16.25H27.5C28.163 16.25 28.7989 16.5134 29.2678 16.9822C29.7366 17.4511 30 18.087 30 18.75V27.5C30 28.163 29.7366 28.7989 29.2678 29.2678C28.7989 29.7366 28.163 30 27.5 30H18.75C18.087 30 17.4511 29.7366 16.9822 29.2678C16.5134 28.7989 16.25 28.163 16.25 27.5V23.75H12.5C11.837 23.75 11.2011 23.4866 10.7322 23.0178C10.2634 22.5489 10 21.913 10 21.25V12.5ZM12.5 11.25C12.1685 11.25 11.8505 11.3817 11.6161 11.6161C11.3817 11.8505 11.25 12.1685 11.25 12.5V21.25C11.25 21.5815 11.3817 21.8995 11.6161 22.1339C11.8505 22.3683 12.1685 22.5 12.5 22.5H21.25C21.5815 22.5 21.8995 22.3683 22.1339 22.1339C22.3683 21.8995 22.5 21.5815 22.5 21.25V12.5C22.5 12.1685 22.3683 11.8505 22.1339 11.6161C21.8995 11.3817 21.5815 11.25 21.25 11.25H12.5ZM21.4225 23.7437C21.6633 24.1196 21.9258 24.4721 22.21 24.8012C21.275 25.52 20.1187 26.0525 18.75 26.4163C18.9725 26.6875 19.3137 27.21 19.4437 27.5C20.85 27.0513 22.0437 26.445 23.0513 25.6325C24.0225 26.4637 25.225 27.0887 26.7138 27.4725C26.88 27.155 27.2313 26.6313 27.5 26.36C26.0938 26.0438 24.9288 25.4925 23.975 24.755C24.8263 23.8212 25.5025 22.6912 26.0012 21.3088H27.5V20H23.75V21.3088H24.7063C24.3088 22.3637 23.7812 23.2413 23.1163 23.9713C22.9325 23.7757 22.7593 23.5704 22.5975 23.3563C22.2445 23.5818 21.8404 23.7151 21.4225 23.7437Z" fill="#64025D"/>
<path fill-rule="evenodd" clip-rule="evenodd" d="M21.25 11.2H12.5C11.782 11.2 11.2 11.782 11.2 12.5V21.25C11.2 21.968 11.782 22.55 12.5 22.55H21.25C21.968 22.55 22.55 21.968 22.55 21.25V12.5C22.55 11.782 21.968 11.2 21.25 11.2ZM12.5 10C11.1193 10 10 11.1193 10 12.5V21.25C10 22.6307 11.1193 23.75 12.5 23.75H21.25C22.6307 23.75 23.75 22.6307 23.75 21.25V12.5C23.75 11.1193 22.6307 10 21.25 10H12.5Z" fill="#64025D"/>
</g>
<defs>
<filter id="filter0_b_50_12452" x="-16" y="-16" width="72" height="72" filterUnits="userSpaceOnUse" color-interpolation-filters="sRGB">
<feFlood flood-opacity="0" result="BackgroundImageFix"/>
<feGaussianBlur in="BackgroundImageFix" stdDeviation="8"/>
<feComposite in2="SourceAlpha" operator="in" result="effect1_backgroundBlur_50_12452"/>
<feBlend mode="normal" in="SourceGraphic" in2="effect1_backgroundBlur_50_12452" result="shape"/>
</filter>
</defs>
</svg>
