<svg width="20" height="18" viewBox="0 0 20 18" fill="none" xmlns="http://www.w3.org/2000/svg">
<path d="M11.0152 16.759L11.0136 16.7605C10.4446 17.2771 9.56734 17.2769 8.99841 16.7529L8.996 16.7507L8.886 16.6507L8.88512 16.6499C6.24965 14.2654 4.11371 12.3294 2.64632 10.5105C1.18621 8.70056 0.44018 7.06856 0.499369 5.29786C0.554079 3.75164 1.34727 2.27122 2.62106 1.40395L2.62133 1.40377C5.01936 -0.231252 7.99957 0.519371 9.61952 2.41544L9.99967 2.86039L10.3798 2.41544C12.0008 0.518156 14.9804 -0.240002 17.3769 1.40304L17.3783 1.40395C18.6522 2.2713 19.4454 3.75192 19.5 5.29829L19.5 5.29868C19.5639 7.06866 18.8184 8.70025 17.3567 10.5131C15.8939 12.3272 13.767 14.2596 11.1462 16.6408L11.1152 16.669L11.1134 16.6706L11.0152 16.759Z" stroke="url(#paint0_linear_484_11649)"/>
<defs>
<linearGradient id="paint0_linear_484_11649" x1="9.99994" y1="0" x2="9.99994" y2="17.6469" gradientUnits="userSpaceOnUse">
<stop stop-color="#E2D089"/>
<stop offset="0.335" stop-color="#EACF65"/>
<stop offset="0.51" stop-color="#F4D96E"/>
<stop offset="0.685" stop-color="#DDC669"/>
<stop offset="1" stop-color="#E2D089"/>
</linearGradient>
</defs>
</svg>
