<svg width="18" height="14" viewBox="0 0 21 18" fill="none" xmlns="http://www.w3.org/2000/svg">
<path d="M20.5504 10.0252C20.5504 13.2834 19.0466 16.1656 16.6656 17.92L16.039 17.2934L13.4074 14.6618L15.1618 12.9074L16.6656 14.4112C17.2922 13.534 17.7934 12.4062 17.9187 11.2783H15.5378V8.77203H17.9187C17.6681 7.6442 17.2922 6.64168 16.6656 5.63916L15.1618 7.14294L13.4074 5.38853L14.9112 3.88476C14.034 3.25818 12.9062 2.75692 11.7783 2.63161V5.01259H9.27203V2.63161C8.1442 2.88224 7.14168 3.25818 6.13916 3.88476L9.8986 7.6442C10.1492 7.6442 10.2745 7.51888 10.5252 7.51888C11.1899 7.51888 11.8274 7.78294 12.2974 8.25296C12.7674 8.72298 13.0315 9.36047 13.0315 10.0252C13.0315 10.6899 12.7674 11.3274 12.2974 11.7974C11.8274 12.2674 11.1899 12.5315 10.5252 12.5315C9.86046 12.5315 9.22298 12.2674 8.75296 11.7974C8.28294 11.3274 8.01888 10.6899 8.01888 10.0252C8.01888 9.77455 8.01888 9.64923 8.1442 9.3986L4.38476 5.63916C3.75818 6.51636 3.25692 7.6442 3.13161 8.77203H5.51259V11.2783H3.13161C3.38224 12.4062 3.75818 13.4087 4.38476 14.4112L5.88853 12.9074L7.64294 14.6618L4.38476 17.92C2.00378 16.1656 0.5 13.2834 0.5 10.0252C0.5 7.36633 1.55622 4.81639 3.4363 2.93631C5.31639 1.05622 7.86633 0 10.5252 0C13.184 0 15.734 1.05622 17.614 2.93631C19.4941 4.81639 20.5504 7.36633 20.5504 10.0252Z" fill="#32012F"/>
</svg>
