<svg width="25" height="24" viewBox="0 0 21 14" fill="none" xmlns="http://www.w3.org/2000/svg">
<path fill-rule="evenodd" clip-rule="evenodd" d="M3.5 0C2.70435 0 1.94129 0.316071 1.37868 0.87868C0.816071 1.44129 0.5 2.20435 0.5 3V11C0.5 11.7956 0.816071 12.5587 1.37868 13.1213C1.94129 13.6839 2.70435 14 3.5 14H13.5C14.2956 14 15.0587 13.6839 15.6213 13.1213C16.1839 12.5587 16.5 11.7956 16.5 11V9.414L18.793 11.707C18.9329 11.8468 19.111 11.942 19.305 11.9806C19.4989 12.0192 19.7 11.9993 19.8827 11.9237C20.0654 11.848 20.2215 11.7199 20.3314 11.5555C20.4413 11.391 20.5 11.1978 20.5 11V3C20.5 2.80225 20.4413 2.60895 20.3314 2.44454C20.2215 2.28013 20.0654 2.15199 19.8827 2.07632C19.7 2.00065 19.4989 1.98085 19.305 2.01942C19.111 2.05798 18.9329 2.15319 18.793 2.293L16.5 4.586V3C16.5 2.20435 16.1839 1.44129 15.6213 0.87868C15.0587 0.316071 14.2956 0 13.5 0H3.5Z" fill="#554E44"/>
</svg>
